<?xml version="1.0" encoding="utf-8"?>
<!-- Generator: Adobe Illustrator 27.1.1, SVG Export Plug-In . SVG Version: 6.00 Build 0)  -->
<svg version="1.1" id="レイヤー_1" xmlns="http://www.w3.org/2000/svg" xmlns:xlink="http://www.w3.org/1999/xlink" x="0px"
	 y="0px" viewBox="0 0 921.7 639" style="enable-background:new 0 0 921.7 639;" xml:space="preserve">
<path style="fill:#D4E700;" d="M802.1,185.4c-0.7-1.1-0.1-1.6,1.5-1c0.7,0.2,1,0.8,0.8,1.1C803.8,186.4,802.7,186.4,802.1,185.4z
	 M804.4,264c0.7-0.2,1.3-0.6,1.2-1c-0.1-1.1-1.7-0.9-2.1,0.2C803.2,263.8,803.6,264.1,804.4,264z M780.2,159.7
	c1.1,0,4.2-2.6,4.2-3.5c0-2-2.1-1-3.6,1.8C780.3,159,780.1,159.7,780.2,159.7z M777.5,93.8c2.5-1.9,3.1-3.6,1.5-3.6
	c-0.5,0-1.4,1-1.9,2.3C776.2,94.6,776.2,94.7,777.5,93.8z M643,232.3c0-0.4-0.3-0.8-0.7-0.8c-0.4,0-0.9,0.4-1.1,0.8
	c-0.2,0.4,0.1,0.7,0.7,0.7C642.5,233,643,232.7,643,232.3z M669.3,296.8c0.8,0.9,1.8,0.5,1.8-0.6c0-0.7-0.5-1.1-1.1-1.1
	C668.7,295,668.3,296,669.3,296.8z M660.1,302.9c3.5-2.1,6.2-5.9,4.8-6.8c-1.6-1-9,5.7-9,8.1C655.9,305.2,656.5,305,660.1,302.9z
	 M677.4,268.6c0.3-0.5,0.4-1,0.2-1.1c-0.5-0.5-2.8,0.5-2.8,1.3C674.8,269.6,676.9,269.5,677.4,268.6z M660,288.5
	c-1.5-0.6-5.1,3.3-7.2,7.8c-0.8,1.8-1.8,3.4-2.2,3.6c-0.4,0.3-0.7,0.8-0.7,1.2c0,1.4,1.1,0.7,5-3.4
	C659.9,292.6,661.8,289.2,660,288.5z M656.7,210.7c4-4.8,4.4-6.7,1.6-7c-1.3-0.2-2.1,0.4-3,2.2c-3.1,5.7-6.6,10.5-7.8,10.8
	c-0.8,0.2-1.6,1.3-1.9,2.5c-0.8,3.3-3.1,6.2-6.4,7.9c-1.9,1-3,2-3,3c0,1.7-4.8,6.8-6.5,6.8c-1,0-2.6,2.8-2.6,4.5
	c0,1.5,2.2,0.7,3.9-1.5c1-1.2,2.7-3.4,3.9-4.9c1.2-1.5,2.5-2.7,2.9-2.7c2.5,0,15-13.7,15-16.4C652.9,215.5,654.6,213.2,656.7,210.7z
	 M644.1,312c1.6-1.6,1.5-1.8-1.1-1.8c-1.8,0-2.2,0.4-2.2,1.5C640.8,313.5,642.5,313.7,644.1,312z M638.5,301.9
	c-2.2,0-3.2,1.8-1.8,3.3c1.4,1.4,4.1,0.4,4.1-1.4C640.8,302.1,640.4,301.9,638.5,301.9z M713,353.3c1.2,0,3,0.5,4.1,1.1
	c3.9,2.2,7.3,0.4,4.4-2.5c-1.3-1.3-8.5-1.1-9.7,0.2C711,353.1,711.2,353.3,713,353.3z M664.2,281.8c0-0.6-0.3-1.1-0.7-1.1
	c-0.4,0-0.8,0.5-0.8,1.1c0,0.7,0.4,1.1,0.8,1.1C663.9,282.9,664.2,282.5,664.2,281.8z M646.8,282.3c-0.5,0.2-1.1,0.8-1.3,1.3
	c-0.2,0.5,0.1,0.8,0.7,0.7c0.5-0.2,1.1-0.8,1.3-1.3C647.6,282.4,647.3,282.2,646.8,282.3z M672.5,277.7c0,1.1,2,0.8,3.1-0.5
	c1-1.2,3.6-3.1,8.8-6.4c2.4-1.6,3.4-4.5,1.5-4.5c-0.5,0-2.8,1.8-5.1,4c-2.3,2.2-5.1,4.6-6.2,5.3
	C673.4,276.4,672.5,277.3,672.5,277.7z M756,388.1c-0.2-0.4-1-0.8-1.6-0.8c-0.6,0-1.1,0.4-1.1,0.8c0,0.4,0.7,0.7,1.6,0.7
	C755.8,388.8,756.3,388.4,756,388.1z M753.4,395.9c0,1.3,0.5,1.5,1.1,0.5c0.2-0.4,0.1-0.9-0.3-1.2
	C753.7,395,753.4,395.3,753.4,395.9z M711.8,334.4c0-0.4-0.4-0.7-0.8-0.7c-0.4,0-0.7,0.3-0.7,0.7c0,0.4,0.3,0.8,0.7,0.8
	C711.5,335.1,711.8,334.8,711.8,334.4z M742.7,224.2c-4.8,2.2-12.6,5.7-13.4,5.9c-9.2,2.7-8.7-0.4,1-6.5c2.5-1.6,5.1-3.5,6-4.2
	c2.4-2.3,10.3-7.4,11.3-7.4c1.7,0,4.6-3.7,3.7-4.6c-1.2-1.2-3-0.4-8.5,3.9c-2.7,2.1-7.2,5.3-10,7.2c-2.8,1.8-6.3,4.5-7.7,5.9
	c-1.4,1.4-4.1,3.1-6,3.9c-1.9,0.7-3.4,1.6-3.4,1.9c0,0.4-1.5,1.3-3.3,2.1c-1.8,0.8-3.7,2.1-4.2,2.7c-0.5,0.7-1.3,1.2-1.7,1.2
	c-2.2,0-14.2,11.1-13.7,12.6c0.1,0.4-2.8,2.3-6.5,4.2c-3.7,2-7.8,4.7-9.1,5.9c-1.3,1.3-2.5,2.3-2.7,2.3c-0.1,0-1.1,0.8-2.2,1.8
	c-1.1,1-2.9,2-4,2.2c-2.5,0.5-8.5,6.2-8.5,8.1c0,2.5-0.8,3.6-5.1,6.9c-4.8,3.6-6.2,5-6.2,6.5c0,1.8,1.3,1,5.2-2.9
	c2.7-2.6,4.3-3.7,5.1-3.4c0.8,0.3,1.6-0.1,2.4-1.1c0.6-0.8,2.5-2.2,4.3-3.1c3.5-1.6,7.6-6.1,8.8-9.7c0.5-1.3,1.6-2.5,2.8-3
	c1.1-0.4,4.2-1.5,6.8-2.4c2.6-0.9,4.7-1.9,4.7-2.2c0-1.1,6.7-7.6,10.6-10.2c2.3-1.5,5.8-3.9,7.9-5.4c2-1.4,4.3-2.6,5.1-2.6
	c2.5,0,9.5-2.8,12.9-5.1c4.1-2.8,14.2-7.1,15.1-6.5c0.4,0.2,1.6,0.1,2.8-0.3c1.1-0.4,4.5-1.5,7.5-2.4c4.2-1.3,5.5-2,5.5-3
	C755.7,220.5,749.5,220.9,742.7,224.2z M695,340.9c-0.4-1.1-6.8-1-8.7,0.2c-0.9,0.5,0.2,0.7,3.9,0.8
	C693.9,341.9,695.2,341.7,695,340.9z M686.1,362.4c0.6,0.4,2.5,0.8,4.1,0.8c1.7,0,4.4,0.2,6,0.5c7,1.3,14.8,0.3,14.8-1.8
	c0-0.9-1.3-1-7.7-0.5c-4.2,0.2-10.1,0.4-13,0.4C686.7,361.7,685.3,361.9,686.1,362.4z M723.6,238.4c0.2,0.5,1,0.4,1.9-0.1
	c1.8-0.9,2.6-2.2,1.5-2.2C725.4,236.1,723.1,237.6,723.6,238.4z M709.7,179.4c-0.1,0.3-4.5,4.1-9.7,8.3c-5.1,4.3-9.4,8-9.4,8.4
	c0,1.6,2.5,0,10-6.6c4.5-3.9,9.2-7.7,10.5-8.3c1.3-0.6,2.1-1.6,1.9-2.1C712.7,178.2,710.1,178.4,709.7,179.4z M695.2,227.1
	c0.9,1.7,2.2,1.9,2.2,0.4c0-0.6-0.7-1.5-1.5-1.9C694.2,224.6,694.1,224.9,695.2,227.1z M633.2,262c0,1.8,2.2,0.7,4.1-2
	c1.5-2.3,1.5-2.7,0.3-2.7C636.2,257.2,633.2,260.4,633.2,262z M689.1,165c0.4,0,1.3-1,1.9-2.2c0.7-1.3,0.9-2.3,0.5-2.3
	c-0.3,0-1.2,1-1.9,2.3C688.9,164,688.7,165,689.1,165z M693.5,231c0.4-1.4-2.1-2.2-2.9-0.9c-0.3,0.5-0.4,1.3-0.2,1.6
	C691,232.6,693.1,232.1,693.5,231z M754.1,89.4c-1,0-4.5,3.4-6.4,6.4c-0.8,1.3-3,4.2-5,6.5c-7.6,9-18.6,22.4-20.4,24.9
	c-1.9,2.7-6.9,10.2-7.9,12c-1.2,2.1,1.6-0.2,3.9-3c1.2-1.5,4.6-5.4,7.6-8.7c3-3.3,7-8.2,9.1-10.9c2-2.7,3.8-5.1,4.1-5.3
	c0.7-0.5,5.6-7,6.4-8.5c0.4-0.7,2.7-3.3,5-5.9C754.5,92.7,756.1,89.4,754.1,89.4z M706.2,162.3c4.2-4.6,7.2-10.7,4.4-8.8
	c-1,0.6-7.9,11.3-7.9,12.1C702.8,165.9,704.3,164.5,706.2,162.3z M617.8,189.1c-0.2,0.7-0.6,1.8-0.8,2.4c-0.3,0.7,0.2,2.1,1.1,3.2
	c2.7,3.5,7.7,2.1,8.5-2.5C627.5,187.7,619.1,184.7,617.8,189.1z M623,246.8c-1,2-2.4,3.6-2.9,3.6s-1.6,0.7-2.4,1.5
	c-1.1,1.3-1.2,1.5-0.1,1.5c0.7,0,1.4-0.4,1.7-0.8c0.3-0.4,1-0.6,1.6-0.4c1.2,0.4,2.8-2.5,3.7-6.8C624.9,243.7,624.6,244,623,246.8z
	 M641.1,99.3c0.3-1.9,1.5-6.4,2.7-10.1c1.1-3.7,2.8-9.4,3.6-12.8c0.8-3.4,2.2-8.2,3.1-10.7c1.8-5.3,1.9-7.2,0.4-7.2
	c-1.5,0-2.7,2.4-2.8,5.7c-0.1,1.5-0.4,2.8-0.7,3.1c-0.4,0.2-0.6,1-0.6,1.7c0,0.7-0.8,3.4-1.9,5.9c-1,2.5-2.6,7.6-3.5,11.3
	c-0.9,3.7-2.2,7.9-3,9.4c-0.7,1.5-1.5,5.3-1.8,8.5C636,112.6,639.6,108.7,641.1,99.3z M627.3,261.8c-0.8,0-15.3,14-15.3,14.7
	c0,1.8,3-0.7,9-7.1C624.9,265.2,627.7,261.8,627.3,261.8z M623.4,274.4c0-1.5-1.6-1.7-3.7-0.5c-1.1,0.6-5.3,7.4-5.3,8.7
	c0,0.6,4.8-2.8,5.2-3.6c0.1-0.4,0.6-0.6,1-0.6C621.6,278.4,623.3,276.1,623.4,274.4z M618.1,282.2c0,0.4,0.3,0.7,0.7,0.7
	c0.4,0,1-0.4,1.2-0.7c0.2-0.4-0.1-0.8-0.7-0.8C618.6,281.4,618.1,281.8,618.1,282.2z M622.6,148.4c0.4,0,0.7-0.1,0.7-0.2
	c0.1-1.1,4.2-12.2,5.3-14c0.8-1.4,1.5-3.8,1.5-5.3c-0.1-3.4-3.1,1.1-4.2,5.9c-0.3,1.5-0.8,3-1.1,3.4c-0.3,0.4-1,2.5-1.5,4.5
	c-0.5,2.1-1.1,4.2-1.2,4.7C622,148,622.2,148.4,622.6,148.4z M627.2,222.4c2.2-3.9,4.7-8.4,5.5-10c1.5-2.9,1.5-2.9,2.8-1.1
	c1.3,1.7,1.3,1.9,0.1,3.7c-4.2,6.4-8.5,13.7-9.9,16.8c-3.1,7.3-9.6,15.4-8,10.2c0.3-1,1.6-3.4,2.8-5.4s2.4-4.4,2.5-5.4
	C623.2,230.3,625,226.3,627.2,222.4z M631.3,219.4c1.5-2.5,2.6-5,2.4-5.4c-0.1-0.5-1.5,1.6-3.1,4.5
	C627.2,225.2,627.6,225.6,631.3,219.4z M624.7,228.9c-0.4,0.8,0.1,0.5,1.1-0.7c1.1-1.3,1.9-2.6,1.9-3
	C627.8,224.3,625.9,226.6,624.7,228.9z M664.1,264.3c2.8-3.6,1.6-4.5-1.7-1.5c-1.1,1-2,2.2-2,2.7C660.4,267,662.5,266.3,664.1,264.3
	z M653.5,274.8c-0.5,0.2-1,0.7-1.2,1.2c-0.4,1.4,1.1,1.1,1.6-0.3C654.2,275,654,274.6,653.5,274.8z M656.4,260.7
	c-0.4,0.9-0.2,1,1,0.3c1.8-0.9,1.9-1.5,0.4-1.5C657.3,259.5,656.6,260,656.4,260.7z M660.2,115.7c0.3-1.6-1.9-2.6-3-1.5
	c-0.4,0.4-0.6,1.4-0.3,2.1C657.5,117.8,659.9,117.4,660.2,115.7z M669.1,145.4c0.3,0.4,0.8,0.8,1.2,0.8c0.9,0,0.9-2.1,0-2.7
	C669.4,142.9,668.5,144.4,669.1,145.4z M891.7,203.4c-3.1,0.2-6.8,2.4-6.8,4.1c0,0.4,0.6,0.5,1.3,0.3c0.7-0.2,2.2-0.6,3.2-0.8
	C895.9,205.2,897.3,203.1,891.7,203.4z M813,345.7c-2.7,0-4.1,0.8-3,1.8c0.6,0.6,4.1-0.1,5-1.1C815.4,346,814.7,345.7,813,345.7z
	 M810.1,446.2c-0.4,0-0.8,0.4-0.8,0.8c0,0.4,0.4,0.7,0.8,0.7s0.7-0.4,0.7-0.7C810.8,446.6,810.5,446.2,810.1,446.2z M801.8,340.4
	c0-0.4-0.5-0.7-1.1-0.7c-0.6,0-1.3,0.3-1.6,0.7c-0.2,0.4,0.2,0.8,1.1,0.8C801.1,341.2,801.8,340.8,801.8,340.4z M826.7,279.6
	c-0.7-0.5-6.3,1.2-9.8,3c-1,0.5-3.1,1.2-4.5,1.5c-1.5,0.3-4.1,1.1-5.7,2s-3.7,1.5-4.7,1.5c-1,0-1.8,0.4-1.8,0.8
	c0,1.1,7.3,0.8,12.5-0.4c2.5-0.7,5.9-1.5,7.4-1.9C825.2,284.6,829,281,826.7,279.6z M800.3,165.4c0-1.8-3.1-1.3-6.2,1
	c-1.5,1.1-4.1,3.1-5.9,4.4c-1.8,1.2-4.5,3.4-6,4.9c-3,2.9-5.6,4.7-10.9,7.9c-3.4,2-6.5,4.5-6.5,5.4c0,1.4,6.8-2,12.1-6
	c2.3-1.7,5.5-3.9,7.1-4.9c1.7-1,4.6-3,6.5-4.5s4.8-3.6,6.6-4.8C798.8,167.4,800.3,166,800.3,165.4z M796.1,196.3
	c-1.5-0.5-2.3,0.1-1.6,1.2c0.6,1,1.7,1,2.3,0C797.1,197.1,796.8,196.5,796.1,196.3z M754.5,218.4c1,1,2.6,1.9,3.4,1.9
	c3.9,0,6.6-5.4,3.8-7.8C757.1,208.4,750.2,214.1,754.5,218.4z M790.6,275c-0.3-1.1-2.7-0.9-3.1,0.2c-0.2,0.7,0.2,0.9,1.5,0.7
	C790,275.9,790.8,275.4,790.6,275z M787.7,224.2c-1.3-3.8-7.1-2.8-7.1,1.2c0,1.1,0.4,2.5,0.9,3C784.2,231,789,227.7,787.7,224.2z
	 M791.2,504.4c-1.5-0.8-1.6-0.7-0.8,0.7c1,1.8,1.3,1.9,1.9,0.8C792.6,505.6,792,504.9,791.2,504.4z M788.5,195.2
	c-0.2-0.4-0.8-0.7-1.1-0.7c-0.4,0-0.7,0.3-0.7,0.7c0,0.4,0.5,0.8,1.2,0.8C788.5,196,788.8,195.7,788.5,195.2z M858.4,145.5
	c-0.5,0.2-1.1,0.8-1.3,1.3c-0.2,0.6,0.1,0.8,0.7,0.7c0.5-0.2,1.1-0.8,1.3-1.3C859.3,145.6,859,145.3,858.4,145.5z M833.6,370.6
	c-1.6,0-2,0.8-1,1.8c0.7,0.7,1.9,0.2,2.3-0.8C835,371.1,834.5,370.6,833.6,370.6z M759.9,251.9c-1,0.4-1.9,1.1-1.9,1.5
	c0,1.5,3.7,0.8,4.5-0.7C763.4,251,762.8,250.8,759.9,251.9z M400.4,338.9c-0.4,0-0.8,0.4-0.8,0.8c0,0.4,0.4,0.7,0.8,0.7
	c0.4,0,0.7-0.4,0.7-0.7C401.1,339.3,400.8,338.9,400.4,338.9z M601.5,220.2c-0.4,0.6-0.7,2.1-0.7,3.4c0.1,1.9,0.1,2.1,0.7,0.7
	C602.4,222.2,602.5,218.7,601.5,220.2z M578.1,405.2c0,0.5,0.2,1.5,0.4,2.1c0.2,0.7,0.6,1.1,0.8,0.9c0.2-0.2-0.1-1.1-0.4-2.1
	C578.4,405.1,578.1,404.7,578.1,405.2z M575.6,426.8c0-2.4-0.3-6.4-0.7-9c-0.4-3.2-0.5-1.3-0.3,6c0.2,5.8,0.5,10.8,0.8,11.2
	c0.8,1.3,1.7-1.2,1-2.6C576,431.8,575.7,429.3,575.6,426.8z M576.6,408.4c0,1,0.2,1.5,0.4,1c0.2-0.5,0.2-1.4,0-1.9
	C576.8,407,576.6,407.4,576.6,408.4z M540.7,446.9c-0.6,0.4-1.5,2.3-2.1,4.1c-0.5,1.8-2,5-3.1,7.1c-1.1,2.1-2.1,4.2-2.1,4.7
	c0,1.5,0.8,1,1.5-1c0.4-1,1.2-1.9,1.9-1.9c0.7,0,1.1-0.7,1.1-1.9c0-1,0.8-3.8,1.9-6.1C541.9,447,542.2,445.6,540.7,446.9z
	 M591.8,414c-0.2,0.8,0.1,2.9,0.6,4.8c1.3,4.7,1.8,3.4,0.7-1.8C592.5,414.6,592,413.2,591.8,414z M588,545c-1.1-0.7-2.7,0.8-2.2,2.1
	c0.7,1.7,2.8,1.5,2.8-0.3C588.6,546,588.3,545.2,588,545z M571.3,428.1c0,1,0.2,1.5,0.4,1c0.2-0.5,0.2-1.4,0-1.9
	C571.5,426.6,571.3,427.1,571.3,428.1z M588,428.9c0.4,0,0.6-1,0.4-2.1c-0.2-1.2-0.6-4.1-0.9-6.5c-0.7-6.7-1.3-4.6-0.7,2.4
	C587,426.1,587.6,428.9,588,428.9z M585.1,426c-1.1-5.8-1.5-7-2.5-7c-0.7,0,0,3.9,2.1,10.9c0.8,2.9,1.9,6.8,2.4,8.5
	c0.5,1.8,1.1,3.2,1.5,3.2c0.4,0-0.1-2.3-0.8-5.1C586.8,433.8,585.7,429,585.1,426z M608.4,447.9c-0.5-0.2-0.9,0.2-0.9,0.9
	s0.5,1.2,1.2,1.2C610,450.1,609.8,448.4,608.4,447.9z M555.7,486.7c-0.8-1.5-1-3.1-0.7-4.7c0.5-3.1-0.5-3.7-2.5-1.5
	c-3.1,3.4-3.3,13.5-0.3,14.3c2.2,0.5,2.3,0.5,3.6-0.7C557.2,492.7,557.2,489.6,555.7,486.7z M547.8,518.1c-0.4,0-0.7,0.3-0.7,0.7
	c0,0.4,0.3,0.8,0.7,0.8c0.4,0,0.8-0.4,0.8-0.8C548.5,518.4,548.2,518.1,547.8,518.1z M544.1,509c0,1,0.2,1.4,0.4,0.9
	c0.2-0.5,0.2-1.4,0-1.9C544.3,507.5,544.1,507.9,544.1,509z M564.4,441.3c-0.7,0.4-0.7,0.8,0.1,1.6c0.6,0.8,1.2,0.9,1.7,0.4
	C567.2,442.3,565.7,440.6,564.4,441.3z M544.7,455.3c-0.4,0-0.7,0.4-0.7,0.8c0,0.4,0.3,0.7,0.7,0.7c0.4,0,0.8-0.4,0.8-0.7
	C545.5,455.7,545.1,455.3,544.7,455.3z M558.8,438.3c0.2-2.7-2.9,8.7-4,14.3c-0.4,1.8-0.3,2.1,0.5,1.4
	C556.2,453.2,558.2,444.1,558.8,438.3z M566.3,430.3c0.8-1.3-1.7-3.4-2.8-2.4c-0.7,0.7-0.7,1.2,0.1,2.1
	C564.7,431.3,565.7,431.4,566.3,430.3z M556.6,628.7c0.2,0.3,0.7,0.3,1,0c0.7-0.7-1.1-23.5-1.9-24.3
	C555.1,603.8,556,627.7,556.6,628.7z M563.7,522.4c0,1,0.3,1.8,0.7,1.8c1,0,1-0.8,0-2.3C563.8,520.9,563.7,521.1,563.7,522.4z
	 M557.6,450.7c0,0.1,0.3,0,0.7-0.2c0.8-0.5,2.3-5.3,2.2-7.2C560.6,442.4,557.7,449.5,557.6,450.7z M598.8,230
	c-0.8,0.7-2.7,6.3-2.7,8.3c0,1.7,1.5,0.7,1.9-1.3c0.2-1.1,0.7-3.4,1.1-5C599.6,229.8,599.6,229.4,598.8,230z M658.1,470
	c0-0.2-0.8-1.6-1.9-3.2c-1-1.5-1.9-2.4-1.9-1.9c0,1.2,4.4,11.7,5.4,12.9c1.6,2,1.6-0.4-0.1-4C658.9,471.9,658.1,470.3,658.1,470z
	 M666.3,339.4c-0.1-1-0.8-1.6-1.7-1.6c-1.8,0-2.6,2.6-1.1,3.4C664.9,342.1,666.5,341.1,666.3,339.4z M655.3,352.7
	c0.7,1.8,4.5,3.5,10.2,4.6c7.1,1.5,7.3,1.5,10.5-0.7c5.1-3.4,2.5-4.9-9.3-5.2c-3.4-0.1-7-0.4-8-0.7
	C656.6,350.2,654.7,351.2,655.3,352.7z M608.2,280.4c0,0.8,1.5,0.1,1.8-1c0.4-1,0.3-1.1-0.7-0.3
	C608.8,279.7,608.2,280.2,608.2,280.4z M660,470.4c-0.5,0.9,0.2,0.9,2.3,0c1.5-0.6,1.5-0.7-0.1-0.7C661.3,469.7,660.3,470,660,470.4
	z M754.9,483.3c-0.4,0-0.7,0.3-0.7,0.7c0,0.4,0.3,0.8,0.7,0.8c0.4,0,0.8-0.4,0.8-0.8C755.7,483.6,755.3,483.3,754.9,483.3z
	 M729.8,439.9c-4.5-2.1-12.9-6.8-15.5-8.5c-1-0.7-2.1-1-2.5-0.9c-0.4,0.1,1.6,1.6,4.4,3.2c2.8,1.6,5.3,3.2,5.5,3.4
	c0.2,0.2,3,1.7,6,3.3c6.5,3.2,6,3.1,6,2.1C733.7,442.1,732,441,729.8,439.9z M712.9,520c-1.6-2.5-3.6-5.2-4.4-6
	c-0.7-0.8-2.1-3-3-4.7c-0.9-1.8-2.2-3.8-3-4.5c-0.7-0.7-1.3-1.7-1.3-2.2c0-0.5-0.7-1.5-1.6-2.3c-0.9-0.8-2.1-2.4-2.6-3.4
	c-1.2-2.4-3.1-4.4-4.2-4.4c-1.3,0,5.4,11.4,9.7,16.6c1.5,1.8,6.7,9,11.2,15.7c2.4,3.4,4.8,6.8,5.4,7.4c1.1,1.1,2.5,0.8,2.5-0.5
	c0-0.4-1.3-2.2-2.8-3.9C717.2,526,714.6,522.5,712.9,520z M693.7,412.7c0-1.4-2.9-2.7-6-2.6c-1.5,0-4.4-0.9-6.4-2
	c-2.1-1.1-4.5-2-5.4-2c-1.9,0-7.6-1.8-11.5-3.6c-1.4-0.6-2.7-0.9-3-0.6c-0.7,0.7,1.1,1.8,5.7,3.1c2.2,0.7,5.9,2,8.2,3
	c2.3,1,5.4,2.1,6.9,2.4c1.6,0.3,4.2,1.1,5.9,1.9C691.6,413.9,693.7,414.1,693.7,412.7z M611.3,509.7c-0.4,0-0.7,0.4-0.7,0.8
	c0,0.4,0.3,0.7,0.7,0.7c0.4,0,0.8-0.4,0.8-0.7C612,510.1,611.7,509.7,611.3,509.7z M727.8,561.6c-0.8-0.7-2.4-2.8-3.6-4.7
	c-1.1-1.9-2.2-3-2.4-2.6c-0.2,0.4,1.2,2.8,3,5.3c3.1,4.2,4.4,5.4,4.4,3.9C729.2,563.2,728.6,562.3,727.8,561.6z M635.1,367.6
	c-0.4,0.1,1.5,1.2,4.1,2.5c4.8,2.4,7.3,5,3.9,4.1c-2.5-0.7-2.8,1-0.4,2.9c1.9,1.5,2,1.8,0.8,2.2c-0.8,0.4-1.9,0.1-2.7-0.7
	c-0.7-0.7-1.6-1.2-2.1-1.2c-2.2,0-4-2.3-3.1-3.9c0.7-1.3,0.7-1.6-0.1-1.9c-0.5-0.2-0.9-0.8-0.9-1.4c0-1.3-2.4-2.6-4.9-2.6
	c-2.4,0-2.5,0.5-0.1,2.7c1.1,1,1.9,1.9,1.9,2.1c0,0.5-5.1-2.2-6.7-3.5c-5.2-4.2-13,10.5-8.5,16.2c0.8,1,2.1,3.4,2.8,5.2
	c0.7,1.8,1.7,3.7,2.2,4.1c0.5,0.4,1.3,2.3,1.9,4.2c0.5,1.8,2.1,4.8,3.5,6.5c1.4,1.7,2.5,3.6,2.5,4.3c0,0.7,0.4,1.5,0.8,1.7
	c0.9,0.5,1,3.4,0.1,3.4c-1.2,0-4-3.9-5.5-7.8c-0.8-2.1-2.9-5.2-4.5-6.8c-1.6-1.6-3-3.3-3-3.8c0-0.5-0.9-1.8-2.1-2.9
	c-2.7-2.5-7.7-5.3-7.7-4.4c0,0.4-0.4,0.8-0.8,0.8c-0.4,0-0.7-0.5-0.7-1.1c0-2.8-1.5-0.8-1.6,2.1c-0.1,1.8-0.2,5.2-0.4,7.6
	c-0.1,2.4,0.1,4.5,0.5,4.8c0.4,0.2,0.7,1.1,0.7,1.9s0.9,3.1,2.1,5.1c1.1,1.9,2.6,4.7,3.4,6.2c2.5,4.7,1.5,7.1-1.9,4.5
	c-1-0.8-2.8-1.5-3.9-1.5c-3.3,0-6.2-2.2-6.8-5c-0.3-1.5-0.9-2.5-1.6-2.5c-1.7,0-3.8-3.8-4.1-7.2c-0.1-0.5-1.3-1.3-2.8-1.8
	c-2-0.8-3.1-1.8-4.4-4.5c-3.1-6.4-10.6-4.6-10,2.4c0.2,2.1,0.1,5.9-0.2,8.4c-0.6,4.5-0.6,4.5-0.7,0.4c-0.1-4.1-0.2-4.2-3-5.5
	c-5.4-2.5-7-1.7-6.4,3.4c0.1,1.6-0.1,2.8-0.5,2.8c-2.1,0-3.1,4.5-2.7,11.9c0.7,11.2-1.8,16.1-3.7,7.5c-0.7-3.1-1.1-6.6-0.8-7.8
	c1.5-6.5,0.9-17.2-1-17.4c-1-0.1-1.6,0.1-1.3,0.4c0.2,0.4-0.1,1.1-0.7,1.6c-1.6,1.3-1.4,2.4,0.4,1.9c2.5-0.8,2.6,1.6,0.2,6.2
	c-1.3,2.4-2.5,5.3-2.8,6.4c-0.3,1.4-1,2.1-2.1,2.1c-1.3,0-1.5-0.4-1.1-2.1c0.8-3.6,2.7-14.8,3.1-18.4c0.5-4.6-2.8-7.1-5.4-4.1
	c-2.7,3.1-3.2,4-3.7,7c-0.5,3.5-2,5.3-3.7,4.5c-1-0.4-1.1-1-0.8-3.3c0.3-1.6,0.6-4.7,0.8-7c0.1-2.3,0.6-5.2,1.1-6.4
	c1-2.6,0-3.7-2.6-3.1c-0.8,0.2-3,0.6-4.9,0.8c-4.1,0.5-6.5,2.5-8.3,6.8c-1.9,4.5-5.3,6.1-6.8,3.3c-0.9-1.7,0.5-5.7,2.5-7.4
	c0.7-0.6,1.3-1.8,1.3-2.8c0-1.9,2.7-8.4,3.8-9.1c1.1-0.7,0.8-1.9-0.4-1.9c-0.6,0-1.1-0.4-1.1-0.7c0-0.4,0.4-0.8,0.9-0.8
	c2.5,0-2.8-3.3-7-4.4c-3-0.8-5-1.8-5.6-2.7c-2-3.6-5.3-4.1-9.4-1.5c-2.9,1.9-10.3,3.1-12,1.9c-2.4-1.6,1.1-4.3,8.2-6.3
	c4.6-1.3,6.3-2.5,8.6-6c1.3-1.9,2.5-3,3.6-3c1.3,0,6.2-1.4,7.3-2c0.1-0.1,0.5-1.3,0.8-2.7c0.3-1.4,0.8-3.3,1.1-4.3
	c0.4-1.2,0.4-1.6-0.2-1.3c-1.3,0.8-1-1.8,0.3-3.1c2.8-2.8,0.8-5-4.2-4.4c-10,1.3-15.5,3.2-16.7,5.9c-0.5,1.1-1.3,2.1-1.9,2.3
	c-2.8,1.1-5-2.5-3-4.8c0.7-0.7,1.2-1.5,1.2-1.7c0-0.2,1.7-2.2,3.7-4.4c4.1-4.4,4.5-5.3,2.5-5.3c-1.1,0-1.1-0.1-0.2-0.7
	c1.3-0.8,0.1-2.7-2.2-3.4c-0.8-0.2-1.5-1.5-1.8-3.1c-1.1-5.8-5.6-1.6-4.7,4.4c0.2,1.5,0.1,3-0.2,3.2c-0.4,0.2-1.3,2.1-1.9,4.1
	c-1,3-1.8,3.9-3.6,4.7c-3.4,1.4-7.2,4.1-9,6.2c-1.3,1.6-1.8,1.8-4.3,1.2c-3.6-0.8-3.9-0.8-3.9,0c0,0.4,0.7,0.8,1.7,0.9
	c2.5,0.4,2.6,2.7,0.2,3.3c-1.1,0.3-1.7,0.8-1.4,1.1c0.4,0.4,3.3-0.2,6.5-1.2c6-1.9,11.1-2.4,11.1-1.1c0,0.4-1,1-2.1,1.2
	c-1.1,0.2-3.1,0.8-4.4,1.2c-1.2,0.4-4.1,0.9-6.2,1.1c-2.2,0.2-4.8,0.9-5.9,1.5c-2.3,1.2-4.4,0.7-3.7-0.9c0.3-0.9-0.1-1-1.6-0.7
	c-1.1,0.2-3.6,0.6-5.4,0.8c-4.2,0.5-5.7,1.6-8.6,6.5c-5.6,9.3-19.1,9.1-23.8-0.3c-2.9-5.6-3.2-13-0.8-19.1
	c3.1-8.1,17.8-8.3,25.5-0.3c6.5,6.7,7.7,9.9,3.8,9.9c-0.8,0-1.4,0.4-1.4,0.8c0,1.3,3.3,0.7,6.4-1.2c1.6-1,3.6-1.8,4.4-1.8
	c0.7,0,1.3-0.4,1.3-0.8c0-0.4-0.8-0.7-1.9-0.7c-1.4,0-2.1-0.6-2.7-2.1c-0.5-1.1-1-2.2-1.3-2.4c-0.3-0.2-1-1.3-1.5-2.4
	c-0.8-2-6.4-4.4-10.1-4.4c-2.5,0-3.3-2.1-1.8-5.3c0.7-1.6,1.1-3.7,0.9-4.6c-0.7-2.6,1.6-7.4,3.7-8c1-0.3,2.7-1.6,3.6-2.8
	c1.6-2.2,5.1-3.8,14.8-7.1c5.7-1.9,13.1,0.7,18.5,6.7c5,5.5,16.7,7,15.1,1.9c-0.6-2-4-5-6.4-5.6c-2.3-0.6-4.7-2.5-4.1-3.4
	c0.8-1.3,2.8-0.7,5.6,1.8c3.6,3.1,9.9,5.5,10.7,4.2c0.4-0.7,1-0.5,2.2,0.5c1.2,1.1,1.9,1.3,2.8,0.6c1.8-1.1,1.6-2.7-0.4-3.6
	c-1.7-0.7-2.4-2.7-0.9-2.7c0.4,0,0.7,0.4,0.7,0.7c0,1.3,4.9,3,5.5,2c0.3-0.5,0.5-0.3,0.5,0.5c0,2.7,1.9,1.5,5.1-3.5
	c1.3-2.1,3.1-4.2,3.9-4.8c3.1-2.2,5.7-9.4,3.1-8.8c-1,0.2-2.4-0.3-3.9-1.6c-1.3-1.1-2.8-1.9-3.3-1.9c-1.5,0-3.4-2.7-3.4-4.8
	c0-1.9,0.2-2,3.3-2c1.8,0,3.9-0.5,4.7-1.1c0.8-0.6,2.2-0.9,3.2-0.7c2.5,0.6,3.9-1,3.9-4.3c0-2.2,0.6-3.4,2.5-5.4
	c1.4-1.4,3.6-4.4,5.1-6.7c1.4-2.3,2.7-4.3,2.8-4.5c0.1-0.1,2.8-0.4,6.1-0.5c11.5-0.6,12.3-0.8,12.3-3.6c0-2.7,1.8-4.6,3.5-3.9
	c5.4,2.4,12.1-9.4,15.1-26.8c0.7-3.9,1.3-7.4,1.5-7.6c0.7-1.1,3.3-16,3-16.9c-0.2-0.5,0.2-1.5,0.8-2.1c1.2-1,1.3-0.8,0.8,2.4
	c-1.3,8.6-3,17.4-4.4,22.2c-0.8,2.8-1.3,5.3-1.1,5.6c0.8,0.8,2.7-4.4,3.5-10.3c0.5-3.6,1.1-6.8,1.4-7.2c1-1.7,9.4-33.2,12.5-47.7
	c0.7-3.3,1.7-7,2.1-8.2c0.4-1.2,0.9-4.5,1.1-7.2c0.2-2.8,1.3-6.9,2.4-9.5c1.5-3.4,2-5.9,2.1-10.9c0.2-7.5,1.4-10.8,3.7-10.5
	c1.8,0.2,2.7,6.7,1.2,8.5c-0.4,0.5-1.3,3.1-1.9,5.8c-0.5,2.6-1.9,8-3,11.9c-1.1,4.2-1.8,8.3-1.6,9.9c1.8,14.3,0.5,29.2-3.2,35.1
	c-0.2,0.5-0.4,2.1-0.2,3.6c0.1,2.2-0.3,3.4-2.2,5.6c-2.1,2.4-2.4,3.3-2.2,6.4c0.8,12.1-3.1,22.8-5.3,14.5c-0.5-1.9-0.5-1.9-1,0.4
	c-1.1,5-3.7,12.3-6.1,17c-1.4,2.7-3.5,7.6-4.7,10.8c-2.4,6.6-3.4,7.4-2.8,2.7c0.3-2.8,0.3-3-0.5-1.7c-0.5,0.9-2.1,2.8-3.4,4.4
	c-1.4,1.5-2.5,3.3-2.5,3.7c0,0.5-1.2,2.3-2.7,3.9c-3.1,3.4-3.5,7.6-0.6,7.9c1.2,0.1,2.1-0.7,3.7-3.4c2.4-4.1,3.8-5.4,5.8-5.5
	c0.7,0,1.3-0.2,1.3-0.6c0-0.7,12.4-13.7,13.1-13.7c0.8,0,0.7,2.8-0.1,3.1c-2.1,0.8-6.4,8.3-5.6,9.9c0.4,0.9,1.1,3.1,1.6,4.8
	c0.7,2.7,1.1,3.3,2.8,3.3c1.7,0,1.8,0.1,1,1.1c-0.8,1-0.6,1.1,1,1c1-0.1,1.9-0.3,1.9-0.5c-0.1-1.4,0.2-2.4,0.8-2
	c1,0.6,5.7-4.1,7.9-7.9c3.9-6.8,6.7-11.8,8-14.5c0.7-1.5,1.9-3,2.6-3.1c1.1-0.3,1,0.1-0.5,2.8c-7.3,12.5-9.1,16.9-6.4,15.2
	c0.5-0.3,0.5,0.1-0.1,1.1c-0.4,0.8-1.1,1.8-1.6,2c-0.4,0.3-0.7,1.8-0.7,3.5c0,3.5-2.4,8.6-4.5,9.7c-0.8,0.4-1.5,1.1-1.5,1.6
	s0.4,0.6,0.8,0.3c0.5-0.3,1.6,0.2,2.7,1.2c1.3,1.2,1.8,1.4,1.8,0.7c0-1.5,3.6,2.8,4.7,5.6c0.5,1.3,1.2,2,1.8,1.8
	c0.6-0.2,0.8,0,0.7,0.6c-0.2,0.6,0.4,1.2,1.5,1.5c1.1,0.3,1.9,1,1.9,1.6c0,0.6,0.4,1.1,0.8,1.1c0.4,0,0.6-0.7,0.3-1.5
	c-0.3-1.1,0.1-1.5,1.4-1.9c1-0.2,2.4-1.3,3.1-2.4c1.5-2.3,3.9-2.5,5-0.4c0.4,0.8,2.2,1.9,3.8,2.4c3.9,1.2,3.8,1.9-0.4,2.5
	c-3.8,0.6-4.8,1.8-3.5,4.5c0.9,2.1,4.4,3.2,5.9,1.9c1.4-1.2,5.6-7.4,5.6-8.3c0-0.4,0.7-0.7,1.5-0.7c2.1,0,1.9,1.8-0.6,4.7
	c-1.1,1.3-2.5,3.3-3,4.4c-0.5,1-1.3,2.4-1.8,3.1c-0.7,1-0.5,1.7,0.7,3.5c0.9,1.3,1.5,2.4,1.3,2.5c-0.1,0.2-0.4,1.8-0.6,3.6
	c-0.2,2-0.9,3.6-1.6,4c-2.5,1.5-1.2,2.7,3.7,3.6c2.7,0.5,5.2,0.7,5.6,0.4c0.4-0.2,3,0.1,5.6,0.7c2.6,0.6,6,1.3,7.6,1.5
	c1.6,0.2,3.3,0.5,3.7,0.8c1.3,0.8,9.5,0.6,14.5-0.4c5.6-1,18.7-0.3,18.7,1.1c0,1.3-2.1,1.9-4.8,1.5c-1.3-0.2-3.3-0.1-4.6,0.4
	c-1.2,0.5-3.7,1-5.6,1.2c-1.9,0.2-4.3,0.7-5.3,1.1c-1,0.4-5.4,1.2-9.8,1.8c-4.3,0.7-8,1.5-8.3,1.8c-0.7,0.9-3.9,1-3.9,0.2
	c0-0.5-0.7-0.6-1.6-0.3c-0.9,0.2-3.7,0.5-6.4,0.4c-5.7-0.1-6.8,0.9-7.4,6.3c-0.4,4.1,5.3,11.8,8.6,11.8c3.6,0,1.6,5.7-2.2,6.2
	c-5.2,0.6-3,7,3.9,11.5c2.5,1.6,5.4,3.5,6.4,4.4c3,2.4,5.4,3.1,9.4,3.3c4.1,0.2,8.5,1.1,12,2.5c2.8,1.1,1.8,2.7-1.5,2.1
	c-3-0.4-3.8,0.4-2,1.9c2.5,2,4.7,3,6.9,3c2.4,0,3.1,1,3.1,4.2c0,1.1,0.4,1.9,1.1,1.9c1.4,0,2.3,1.4,1.5,2.2
	c-0.7,0.7-11.7-2.7-16.6-5.1c-1.7-0.8-4-1.8-5.1-2.1c-1.1-0.3-2-0.8-2-1.2c0-1,1.3-0.8,3.8,0.5c1.2,0.6,2.2,0.8,2.2,0.5
	c0-0.4-2.5-1.8-5.5-3.2c-3.5-1.6-6.8-3.9-9.4-6.4C644.5,367.7,641.9,366.7,635.1,367.6z M610.5,386.9c0-0.7-0.5-1.1-1.1-1.1
	c-1.2,0-1.5,0.9-0.6,1.8C609.6,388.4,610.5,388.1,610.5,386.9z M739.5,460.8c-2.9-1.8,2,3.4,5.5,5.9c2.5,1.8,4.7,3.8,5,4.6
	c0.3,0.8,0.9,1.5,1.5,1.5c0.5,0,2.1,1,3.4,2.2c2.7,2.4,4.5,2.9,4.5,1.3C759.4,474.7,749.6,467.1,739.5,460.8z M621.8,542
	c0,0.4,0.2,1,0.5,1.3c0.2,0.3,0.7,0.4,0.8,0.1c0.2-0.2,0-0.8-0.5-1.3C622.2,541.6,621.8,541.5,621.8,542z M625,398.2
	c-0.2,0.2,1.2,2.6,3.2,5.3c3.5,5,5,6.5,3.3,3.3C630,403.8,625.5,397.8,625,398.2z M492.5,339.7c0.6-0.4,0.9-1,0.5-1.3
	c-0.3-0.3-1.1,0-1.8,0.7C489.9,340.5,490.7,340.8,492.5,339.7z M640,395.6c-1.5-1.3-2.9-2.2-3.3-2.3c-0.4,0-0.5-0.7-0.3-1.5
	c0.8-3-2.2-4.5-4.4-2.1c-1.8,2,1,7.4,3.9,7.4c0.3,0-0.2-0.9-1.1-1.9c-2.5-2.6-0.4-2.4,3.4,0.4C642,398.5,643.4,398.5,640,395.6z
	 M610.5,160.4c0,1.6,0.7,0.6,1.5-2.1c0.4-1.3,0.4-2.4,0.1-2.4C611.4,155.9,610.5,158.5,610.5,160.4z M603.7,201.3
	c0-0.4-0.3-0.7-0.7-0.7c-0.4,0-0.8,0.3-0.8,0.7c0,0.4,0.4,0.8,0.8,0.8C603.4,202.1,603.7,201.7,603.7,201.3z M603.9,214.2
	c0.4-2.7,0.4-2.7-0.6-0.4c-0.6,1.3-1.1,3-1.1,3.8C602.2,219.8,603.4,217.4,603.9,214.2z M605.3,232.3c0,1.9,0,1.9,1.1-0.2
	c0.6-1.1,0.9-2.5,0.6-2.9C606.4,228,605.3,229.9,605.3,232.3z M324.8,296.6c-0.4,0-0.8,0.4-0.8,0.8c0,0.4,0.4,0.7,0.8,0.7
	c0.4,0,0.7-0.4,0.7-0.7C325.5,296.9,325.2,296.6,324.8,296.6z M332.5,404.7c-1,0-1.7,0.3-1.7,0.7c0,1,0.8,1,2.2,0
	C334,404.8,333.9,404.7,332.5,404.7z M342.1,373.7c-0.4,0-0.7,0.4-0.7,0.8c0,0.4,0.3,0.7,0.7,0.7c0.4,0,0.8-0.4,0.8-0.7
	C342.9,374,342.5,373.7,342.1,373.7z M526.2,449.3c-0.6,0-1,0.4-0.7,0.8c0.3,0.4,0.8,0.7,1.2,0.7c0.4,0,0.7-0.4,0.7-0.7
	C527.4,449.6,526.8,449.3,526.2,449.3z M339.9,496.6c-0.4-0.2-1-0.1-1.2,0.3c-0.2,0.4,0.1,0.8,0.7,0.8
	C340.8,497.7,341,497.2,339.9,496.6z M301.3,327.6c-0.4,0-0.7,0.3-0.7,0.7c0,0.4,0.3,0.8,0.7,0.8c0.4,0,0.8-0.4,0.8-0.8
	C302.1,327.9,301.7,327.6,301.3,327.6z M313,289.8c-0.6,0-1.1,0.3-1.1,0.7c0,0.4,0.5,0.8,1.1,0.8c0.6,0,1.1-0.4,1.1-0.8
	C314.2,290.1,313.6,289.8,313,289.8z M371.5,299.5c-1.9-5.8-8-7.8-15.3-4.9c-2.5,1-5.6,1.9-6.8,2.1c-3.1,0.4-4.2,2.4-2.4,4.4
	c0.8,0.8,1.2,2,1,2.6c-0.9,2.5,1.3,3.7,12,6.5C367.5,312.1,373.7,306.4,371.5,299.5z M343.9,263.8c0.4,1,0.7,1.1,1.4,0.4
	c0.7-0.7,0.7-1.1,0-1.8C344.2,261.2,343.3,262.1,343.9,263.8z M451.6,373.2c-1.4,0.2-4.8,0.6-7.6,0.9c-3.6,0.4-5.1,0.8-5.1,1.6
	c0,1.4,4.4,1.3,7.9-0.1c1.5-0.6,3.7-1.1,5-1.1c1.3,0,2.3-0.4,2.3-0.8C454,373.1,453.1,372.9,451.6,373.2z M445.3,568
	c-0.7,0-1,0.3-0.7,0.7c0.2,0.4,0.6,0.8,0.7,0.8c0.2,0,0.5-0.4,0.8-0.8C446.3,568.3,446,568,445.3,568z M459.4,366.2
	c-0.2,0.7,0.4,0.8,2.2,0.4c1.4-0.2,5.3-0.5,8.8-0.5c3.8,0,6.3-0.3,6.3-0.8C476.7,364.2,459.8,365,459.4,366.2z M433.6,418.3
	c0.6-0.4,0.9-0.9,0.6-1.2c-0.7-0.7-2.8,0.2-2.8,1.1C431.3,419.2,432.1,419.2,433.6,418.3z M432.9,440.9c-0.9,0.5-1.4,1.2-1.1,1.6
	c0.3,0.5,1,0.2,1.9-0.5C435.5,440.4,435,439.8,432.9,440.9z M351.2,365.4c-0.4,0-0.7,0.3-0.7,0.7s0.3,0.8,0.7,0.8
	c0.4,0,0.8-0.4,0.8-0.8S351.6,365.4,351.2,365.4z M513.8,391.1c0,0.2,1.3-0.9,3-2.5c1.7-1.7,2.9-3.2,2.8-3.3
	C519.2,384.9,513.8,390.4,513.8,391.1z M509.9,560.8c0,3,1.3,2.2,2.1-1.3c3.5-14.4,4.8-20.4,4.4-20.7
	C515.6,537.8,509.9,556.8,509.9,560.8z M515.1,444.5c-0.2-1.3-0.5-1-1.9,1.8c-2,4.1-6.3,13.7-6.3,14.1c0,0.1,0.3,0.3,0.7,0.3
	C508.7,460.6,515.4,446.3,515.1,444.5z M492.6,476.4c-2.1,1.7-2.3,5.3-0.4,6.7c4.8,3.5,10.5-2.4,6.4-6.5
	C496.8,474.6,494.8,474.6,492.6,476.4z M483.8,384.3c-3.3,1.5-4.4,2.5-3.6,3.7c0.5,0.8,0.7,0.8,6.4-3.3
	C490.7,381.8,489.9,381.7,483.8,384.3z M391.3,485.6c-0.4,0-0.8,0.5-0.8,1.2c0,0.6,0.4,1,0.8,0.7c0.4-0.2,0.7-0.8,0.7-1.1
	C392,485.9,391.7,485.6,391.3,485.6z M395.8,442.4c-2.4,0.3-2.8,0.8-1.5,1.6c1.9,1.2,3.9,0.8,3.6-0.6
	C397.8,442.5,397.1,442.2,395.8,442.4z M359.3,380.9c-2.5,5.7,0.8,14,6.2,15.2c1.1,0.2,2.4,0.7,2.8,1c0.4,0.4,1.9,0.7,3.4,0.8
	c10.2,1,16.6-4.5,16.5-14.1C387.8,369.3,365.3,366.9,359.3,380.9z M428.3,316.6c1.6-4.2-1.3-9-5.9-9.8c-8.9-1.4-13.7,7.2-7.4,13
	C419.7,324.1,426.1,322.6,428.3,316.6z M353.8,358.5c0.2,0.4,0.9,0.5,1.5,0.3c1.6-0.6,1.4-1-0.4-1
	C354.1,357.8,353.6,358.1,353.8,358.5z M412.6,445.5c-3.1,2.9-3.8,4.4-2.7,5.5c0.6,0.6,2.5-0.9,2.5-2c0-0.5,1.3-2.1,2.8-3.7
	C419,441.5,416.7,441.6,412.6,445.5z M396.5,279.6c-7.8,1.3-10,12.8-3.1,16.6c7.7,4.2,15.4-3,12.9-12.1
	C405.4,280.9,400.8,278.8,396.5,279.6z M487.6,264.6c-1.1,0.4-1.4,2.6-0.5,3.5c1,1,3.1,0.5,3.6-0.8
	C491.2,265.8,489.2,264,487.6,264.6z M489.6,258.9c0,0.4,0.8,1.9,1.9,3.6c1,1.6,2.3,3,2.7,3c1.5,0-0.1-4.1-2.7-6.8
	c-1.4-1.5-2.9-3.4-3.4-4.4c-0.8-1.6-2.4-2.3-2.4-1c0,0.3,0.8,1.6,1.9,2.8C488.7,257.4,489.6,258.6,489.6,258.9z M501.5,306.4
	c-0.4,0-0.5,0.3-0.3,0.7c0.3,0.4,0.8,0.8,1.3,0.8c0.4,0,0.5-0.4,0.2-0.8C502.5,306.7,502,306.4,501.5,306.4z M460.1,264.4
	c0,0.7,0.4,1.1,0.8,1c0.4-0.1,0.8-0.6,0.8-1c0-0.4-0.4-0.8-0.8-1C460.4,263.3,460.1,263.7,460.1,264.4z M465.9,302.7
	c-0.6-0.5-1.9-1.1-2.8-1.3c-0.9-0.2-2.3-0.5-3.1-0.8c-2.6-0.8-1.5,0.4,1.8,1.9c4.1,1.9,9.2,1.6,7.1-0.4c-0.3-0.4-0.9-0.1-1.3,0.5
	C467.1,303.4,466.8,303.4,465.9,302.7z M506.1,287.7c0.1,0.3,0.6,0.6,1.1,0.6c0.8,0-1.1-2.2-8-9.2c-1.2-1.2-2.5-2.2-2.9-2.2
	c-1.4,0,1,3,5.2,6.5C503.8,285.5,505.9,287.4,506.1,287.7z M458.9,160.5c-0.6,0-1.1,0.4-1.1,0.8c0,0.4,0.5,0.7,1.1,0.7
	c0.7,0,1.1-0.4,1.1-0.7C460.1,160.8,459.6,160.5,458.9,160.5z M441.2,218.3c0-0.6-0.4-1.1-0.8-1.1s-0.7,0.5-0.7,1.1
	c0,0.7,0.3,1.1,0.7,1.1S441.2,219,441.2,218.3z M429.8,301.9c0,0.4,0.5,0.7,1.1,0.7s1.1-0.1,1.1-0.3c0-0.2-0.5-0.5-1.1-0.7
	C430.4,301.3,429.8,301.5,429.8,301.9z M435.5,251.1c0.4,0-0.2-0.8-1.5-1.8c-1.2-1-2.4-1.7-2.5-1.5s0.5,1,1.5,1.8
	C433.9,250.5,435.1,251.1,435.5,251.1z M443,265.2c1.9,1.5,3.1,1.4,1.9-0.1c-0.5-0.6-1.5-1.1-2.2-1.1
	C441.7,264.1,441.8,264.3,443,265.2z M436.4,205.3c3.3,3,3.6,3.3,2.6,1.5c-1-1.9-4.5-5.1-5.1-4.5
	C433.7,202.5,434.8,203.9,436.4,205.3z M452.7,275c-0.4,0.3,0.1,1,0.8,1.5c0.8,0.5,3.5,2.3,6,4c8,5.4,7.6,4-0.7-2
	c-2-1.5-4.1-3-4.6-3.4C453.8,274.7,453,274.6,452.7,275z M444.8,218.7c-0.9-1.6-2.1-2.1-2.1-0.9c0,0.3,0.4,1,0.9,1.5
	C445.1,220.7,445.7,220.4,444.8,218.7z M455.5,269.3c-0.4,0-0.5,0.4-0.3,0.8c0.2,0.4,0.8,0.7,1.2,0.7c0.4,0,0.5-0.4,0.3-0.7
	C456.4,269.7,455.9,269.3,455.5,269.3z M455.6,250.6c-0.4-0.2-0.8,0.3-0.8,1c0,0.7,0.4,1.1,0.8,1c0.5-0.2,0.8-0.6,0.8-1
	C456.4,251.2,456.1,250.7,455.6,250.6z M438.9,281.4c3.1,1.3,5.9,1.9,5.2,1.2c-1-1-9.1-4.1-8.9-3.4
	C435.4,279.7,437.1,280.7,438.9,281.4z M561.4,253.5c0-0.8-1.5-1.8-2-1.3c-0.2,0.2-0.2,0.7,0.1,1.2
	C560.1,254.4,561.4,254.5,561.4,253.5z M531.4,186.8c1.9,2.1,5.9,1.8,8.2-0.5c3.6-3.6,0.8-11.5-4.1-11.5
	C529.2,174.9,526.8,181.9,531.4,186.8z M535.5,218.4c0.5,1.3,0.5,1.3,0.8,0c0.2-0.8-0.1-1.8-0.5-2.2
	C534.7,215.2,534.6,216.3,535.5,218.4z M546.2,80.3c0.4,0,0.8-0.4,0.8-0.7c0-0.4-0.4-0.8-0.8-0.8s-0.7,0.4-0.7,0.8
	C545.5,80,545.8,80.3,546.2,80.3z M562.8,206.4c0,0.4-0.2,1.1-0.3,1.9c-0.2,1.3,1,5.4,2.2,7.4c1.1,1.8,2.2-2.5,1.6-6.5
	C565.9,206.2,563.1,204,562.8,206.4z M516.2,93c1.1,1.1,2.4,0.1,2-1.8c-0.4-1.9-2.9-2.4-2.9-0.5C515.3,91.5,515.6,92.6,516.2,93z
	 M517.1,219.4c-1.5,0-1.5,2.5-0.1,3.8c0.6,0.5,2,2.8,3.1,5.1c1.1,2.4,2.6,4.9,3.2,5.7c0.6,0.7,1.4,1.3,1.8,1.3c0.8,0,0-2.2-1.8-4.7
	c-0.7-1.1-1.4-2.2-1.4-2.5c0-0.3-0.5-1-1.1-1.6c-0.6-0.6-1.3-2.1-1.6-3.1C518.6,219.9,518.4,219.4,517.1,219.4z M524,304.7
	c0.7-1.1-2.7-3.9-3.7-3c-0.4,0.4-0.3,1.3,0.3,2.3C521.7,305.8,523.2,306.1,524,304.7z M518.7,274.7c-4.1-0.1-5.5,4.9-2.2,7.5
	c2.4,1.8,2,1.8,4.4,0.7C524.6,281.1,523,274.7,518.7,274.7z M535.4,202.3c0.2-1,0.2-2.7,0.1-3.8c-0.2-1.1-0.4-0.4-0.4,1.7
	C535.1,202.3,535.3,203.2,535.4,202.3z M511.5,284.5c0.4,0,0.8-0.4,0.8-0.7c0-0.4-0.4-0.8-0.8-0.8c-0.4,0-0.7,0.4-0.7,0.8
	C510.7,284.1,511,284.5,511.5,284.5z M509.2,303.8c-0.4,0.2-0.5,0.8-0.3,1.2c0.2,0.4,0.8,0.5,1.1,0.2c0.4-0.2,0.5-0.8,0.3-1.1
	C510.1,303.6,509.5,303.5,509.2,303.8z M508.1,289.8c0.2,0.4,0.8,0.7,1.2,0.7c0.4,0,0.5-0.4,0.3-0.7c-0.2-0.4-0.8-0.8-1.2-0.8
	C508,289,507.8,289.4,508.1,289.8z M504.6,301.3c-0.4-1.9-2.2-2.1-2.2-0.3c0,0.9,0.5,1.6,1.2,1.6
	C504.3,302.6,504.7,302.1,504.6,301.3z M528.3,254.6c2.2,1.5,3.3,1.5,5.2-0.4c2.7-2.7,0.9-6.7-2.8-6.7
	C526.8,247.4,525.2,252.4,528.3,254.6z M570.9,68.2c-0.7,0-1.1,0.7-1.1,1.7c0,1-0.2,5.1-0.3,9.3c-0.2,4.2-0.1,7.9,0.2,8.3
	c0.6,0.8,1.2-3.4,1.9-12.7C571.9,69.1,571.9,68.2,570.9,68.2z M361.6,204.8c0.2-0.2,0-1-0.5-1.8c-0.9-1.5-1.1-1-0.4,0.8
	C361,204.6,361.3,205,361.6,204.8z M367.8,273.9c2.7,2.7,6.8,1.6,6.8-1.9c0-2.2-1.8-3.6-4.7-3.5
	C366.2,268.6,365.2,271.2,367.8,273.9z M425.5,123.6c-1.6-0.2-2.5,1.9-1.1,3.1c0.2,0.2,1.1,0.5,1.9,0.5
	C428.4,127.2,427.7,123.9,425.5,123.6z M364.7,247.3c-2.1-1.6-6.8-2.4-9.2-1.7c-4.7,1.5-3.4,10.7,1.9,13.9
	C366.5,265.1,373.4,253.7,364.7,247.3z M378.3,326.8c0.4,0,1-0.4,1.2-0.7c0.2-0.4-0.1-0.8-0.7-0.8c-0.7,0-1.1,0.4-1.1,0.8
	C377.7,326.4,378,326.8,378.3,326.8z M418.3,296.6c5.6,4.4,13.2-2.1,8.7-7.4c-0.8-1-2.5-1.7-4.5-1.9
	C415.9,286.5,413.2,292.6,418.3,296.6z M378.8,303.3c0.2-0.4-0.1-1-0.8-1.2c-1.5-0.5-2.2,0.1-1.6,1.2
	C377.1,304.3,378.2,304.4,378.8,303.3z M380.3,254.9c0.3,0.4,1.2,0.8,2.1,0.8c1.6,0,1.6,0-0.1-1.2
	C380.5,253.2,379.4,253.5,380.3,254.9z M759.9,205.7c1.7-0.3,1.9-2.5,0.3-2.5c-0.6,0-1.3,0.7-1.4,1.4
	C758.6,205.6,758.9,205.9,759.9,205.7z M728.4,92.9c3.6-4.9,4.4-6.5,3.4-6.5c-1.1,0-7.9,9.7-7.9,11.2
	C723.9,99,723.8,99.1,728.4,92.9z M755,136.3c1.8,1.1,2.7,0.8,1.3-0.6c-0.7-0.7-1.5-1-1.8-0.7C754.1,135.4,754.3,135.9,755,136.3z
	 M599.2,108.3c0.4,0,0.8-0.4,0.8-0.8c0-0.4-0.4-0.7-0.8-0.7s-0.7,0.3-0.7,0.7C598.4,108,598.7,108.3,599.2,108.3z M576.5,229.7
	c-0.4,0.2-0.7,0.8-0.7,1.2c0,0.4,0.3,0.5,0.7,0.3c0.4-0.2,0.8-0.8,0.8-1.2C577.3,229.5,576.9,229.4,576.5,229.7z M688.4,227.8
	c1.5-0.8,2.1-2.3,0.9-2.3c-0.8,0-2.4,1.6-2.4,2.4C686.9,228.3,687.5,228.2,688.4,227.8z M573.9,201.3c0.7-4.4,1.5-8.9,1.7-10
	c0.3-1.4,0-2.1-0.7-2.1c-1,0-1.3,1.6-3.3,18.9C570.7,214.6,572.5,209.5,573.9,201.3z"/>
<path d="M8.6,369.3c0.4,0,0.6,0.2,0.8,0.7c0.6,1.3,1.2,2.7,1.7,4.2c0.6,1.5,1.1,2.9,1.7,4.3c0.6,1.4,1.3,2.7,2,4
	c0.8,1.3,1.7,2.5,2.8,3.6c1.1,1,2.4,1.9,3.8,2.6s3,1.2,4.5,1.6c1.6,0.4,3.2,0.6,4.8,0.8c1.6,0.1,3.1,0.2,4.6,0.2
	c2.5,0,5-0.2,7.5-0.7s5-1,7.4-1.6c2.4-0.6,4.9-1.1,7.4-1.6s5-0.7,7.6-0.7c1.2,0,2.5,0.1,3.9,0.4c1.4,0.3,2.8,0.8,4,1.4
	c1.2,0.6,2.2,1.5,3.1,2.5c0.8,1,1.3,2.3,1.3,3.8c0,1.6-0.6,3-1.8,4.1c-1.2,1.1-2.8,2-4.7,2.8c-1.9,0.7-4,1.3-6.4,1.7
	c-2.3,0.4-4.6,0.6-6.9,0.8c-2.3,0.2-4.4,0.3-6.4,0.3s-3.5,0.1-4.6,0.1c-2.6,0-5.2,0-7.9,0.1c-2.7,0-5.3,0-7.9-0.2
	c-1.6-0.1-3.2-0.4-4.8-0.8c-1.5-0.4-3.1-0.8-4.5-1.4c-5.8-2.1-9.7-5-11.9-8.7s-3.3-8.5-3.3-14.4c0-1.4,0.1-3,0.2-4.9
	s0.6-3.4,1.4-4.6L8.6,369.3z M25,347.9c0.3-1,0.9-1.9,1.9-2.6s2-1.3,3-1.9c1.1-0.6,2-1.2,2.9-1.9c0.8-0.7,1.3-1.6,1.3-2.6
	c0-0.2-0.1-0.4-0.4-0.6c-0.3-0.1-0.6-0.3-0.9-0.4c-0.4-0.1-0.7-0.3-1.1-0.4c-0.4-0.1-0.6-0.2-0.8-0.2c-1.6-0.4-3.5-1-5.6-1.8
	c-2.1-0.7-4.1-1.6-6-2.7c-1.9-1.1-3.6-2.3-5.1-3.8s-2.4-3.1-2.8-5c-0.3-0.3-0.3-0.5,0.1-0.7c0.3-0.1,0.6-0.2,0.7-0.2
	c1.5,0,3,0.2,4.4,0.6c1.4,0.4,2.8,0.9,4.3,1.4c1.4,0.5,2.9,1,4.3,1.4s2.9,0.6,4.4,0.6c2,0,3.9-0.1,5.9-0.4c1.9-0.3,3.8-0.6,5.8-1.1
	c1.9-0.4,3.8-0.8,5.8-1.1c1.9-0.3,3.9-0.4,5.9-0.4c1.3,0,2.8,0.1,4.6,0.4s3.6,0.8,5.3,1.5s3.1,1.6,4.3,2.7c1.2,1.1,1.8,2.5,1.8,4.1
	c0,1.3-0.4,2.3-1.1,3.2s-1.6,1.6-2.7,2.2c-1.1,0.6-2.2,1-3.4,1.3s-2.3,0.6-3.3,0.8c-2.4,0.5-4.9,0.8-7.4,1c-2.5,0.1-4.9,0.5-7.4,1.1
	c-1,0.2-2.4,0.7-4.2,1.3c-1.7,0.7-3.5,1.3-5.3,2s-3.5,1.3-5.1,1.8s-2.8,0.8-3.5,0.8L25,347.9z"/>
<path d="M155.9,412.9c0.1-0.2,0.3-0.4,0.7-0.7c3.4-2,6.6-3.8,9.6-5.3s5.7-3.1,8.1-4.6c2.4-1.5,4.6-3.2,6.5-4.9s3.5-3.8,4.9-6.2
	c1.3-2.4,2.3-5.2,3-8.5c0.7-3.2,1-7.2,1-11.8c0-3.1-0.3-6.2-0.9-9.3c-0.6-3.1-1.5-6.1-2.9-8.9c-1.3-2.8-3-5.4-5.1-7.7
	s-4.6-4.2-7.5-5.6c-2.4-1.3-4.8-2-7-2.3c-2.3-0.3-4.7-0.4-7.4-0.4c-0.2,0-0.5,0-0.9-0.1c-0.4,0-0.8-0.1-1.3-0.1
	c-0.4,0-0.8,0.1-1.2,0.2c-0.3,0.1-0.5,0.4-0.6,0.7c-0.1,0.7,0.2,1.7,0.9,2.8c0.8,1.1,1.6,2.4,2.6,3.8c1,1.4,1.8,3,2.7,4.6
	c0.8,1.7,1.2,3.4,1.2,5.3c0,2.8-0.4,6-1.1,9.7c-0.7,3.7-1.8,7.4-3.3,11.3c-1.4,3.9-3.2,7.7-5.2,11.5s-4.3,7.1-6.8,10
	s-5.3,5.3-8.3,7.1s-6.2,2.7-9.5,2.7c-3.1,0-5.8-1-8-3s-4-4.5-5.4-7.4c-1.4-2.9-2.4-6-3.1-9.3s-1-6.1-1-8.6c0-6.6,1.4-12.7,4.3-18.3
	c2.9-5.6,6.7-10.3,11.4-14.2s10.1-7,16.2-9.2c6-2.2,12.2-3.3,18.5-3.3c5.9,0,11.5,1,16.9,3c5.3,2,10,4.9,14.1,8.5
	c4,3.7,7.2,8,9.6,13.1c2.4,5.1,3.6,10.6,3.6,16.8c0,6.2-1.3,11.7-4,16.6c-2.7,4.9-6.2,9-10.6,12.3c-4.4,3.4-9.3,5.9-14.8,7.6
	c-5.5,1.7-11.1,2.6-16.8,2.6c-0.6,0-1.1,0-1.5,0.1C156.9,413.5,156.4,413.3,155.9,412.9z M120.9,373.1c0,1.3,0.1,2.8,0.4,4.7
	c0.3,1.9,0.7,3.7,1.3,5.5c0.6,1.8,1.5,3.3,2.6,4.5c1.1,1.3,2.5,1.9,4.2,1.9c2.1,0,4.1-0.8,6.1-2.4c2-1.6,3.9-3.7,5.6-6.2
	c1.8-2.5,3.4-5.4,4.9-8.5s2.8-6.3,3.9-9.4c1.1-3.1,1.9-6,2.5-8.7c0.6-2.7,0.9-4.9,0.9-6.6c0-0.7-0.1-1.5-0.2-2.7
	c-0.1-1.1-0.3-2.2-0.7-3.3c-0.3-1.1-0.8-2-1.4-2.8c-0.6-0.8-1.3-1.2-2.2-1.2c-2.5,0-5,0.6-7.4,1.7s-4.6,2.6-6.7,4.4
	c-2.1,1.8-4,3.9-5.7,6.3c-1.7,2.4-3.2,4.9-4.5,7.5c-1.3,2.6-2.2,5.2-2.9,7.9C121.2,368.3,120.9,370.8,120.9,373.1z"/>
<path d="M199.2,311.9c0,1.2-0.6,1.8-1.8,1.8c-0.6,0-1.2-0.1-1.7-0.3c-0.5-0.2-0.8-0.7-0.8-1.5c0-18.2-0.2-36.2-0.5-54.1
	c-0.4-17.9-0.5-36-0.5-54.1c0-1.2,0.6-1.8,1.8-1.8c8.9,0,17.7,0.2,26.4,0.6c8.7,0.4,17.5,0.6,26.4,0.6c1.3,0,2,0.6,2,1.8
	c0,1.2-0.7,1.8-2,1.8H201c-1.2,0-1.8,0.6-1.8,1.8V311.9z"/>
<path d="M255.6,288.5c1.1,0,2,1,2.7,3s1.2,4.2,1.5,6.8c0.3,2.6,0.5,5.1,0.7,7.4c0.2,2.4,0.2,4,0.2,5c0,2.8,0,6.2,0,10
	c0,3.9-0.4,7.5-1.3,10.9s-2.4,6.3-4.5,8.7c-2.1,2.4-5.2,3.7-9.3,3.7c-2.4,0-4.4-0.7-6-2.1c-1.7-1.4-2.5-3.4-2.5-5.9
	c0-1.4,0.3-3.1,0.9-5c0.6-1.9,1.4-3.9,2.2-6c0.9-2.1,1.7-4.1,2.6-6c0.9-1.9,1.6-3.5,2.2-5c1.7-3.8,3.4-7.6,5-11.5s2.8-7.8,3.8-11.9
	c0.2-0.5,0.3-0.9,0.4-1.4C254.4,288.7,254.8,288.5,255.6,288.5z M296.9,277.6c0,1.3,1.4,2.7,4.2,4.2c2.8,1.6,5.9,3.5,9.3,5.7
	c3.4,2.2,6.5,4.9,9.3,8c2.8,3.2,4.2,7,4.2,11.6c0,3.9-1,6.6-3.1,8c-2,1.4-4.9,2.1-8.5,2.1c-1.4,0-2.6-0.2-3.7-0.6
	c-1-0.4-1.9-1.3-2.5-2.7c-0.5-1.1-0.8-3-0.9-5.8c-0.2-2.8-0.4-5.6-0.8-8.6s-0.9-5.6-1.7-7.9c-0.7-2.3-1.9-3.4-3.4-3.4
	c-0.3,0-0.7,0.4-1.1,1.2c-0.4,0.8-0.7,1.7-1.1,2.6c-0.3,0.9-0.6,1.9-0.8,2.8c-0.2,0.9-0.4,1.6-0.4,1.9V454c0,1.4-1.1,2.6-3.4,3.4
	c-2.3,0.9-4.9,1.6-7.8,2.1s-5.7,0.9-8.5,1.1s-4.7,0.2-5.8,0.2c-1.4,0-2.1-0.7-2.1-2.1V242.9c0-0.9,0.2-1.5,0.6-1.8
	c0.4-0.2,1-0.4,1.8-0.6c5.7,0.6,10.8,1.3,15.3,1.9c3.9,0.5,7.5,0.9,10.7,1.4s4.9,0.7,5.1,0.7c0.8,0.5,1.3,0.8,1.4,0.9
	c-0.3,0.8-1.2,1.6-2.6,2.5s-2.5,1.6-3.3,2.2l-0.7,1.7v25.8H296.9z M332.3,328.9c-0.3,0-0.8,0.2-1.5,0.6c-0.7,0.4-1.2,0.7-1.5,1.1
	c-1.9-0.9-4.2-1.6-6.8-1.9c-2.7-0.3-5.1-0.5-7.3-0.5l-0.7-0.9v-0.9l0.7-0.9c1.1-0.5,4.1-0.7,8.9-0.8c4.8-0.1,10-0.1,15.7,0
	c5.7,0.1,11.1,0.2,16.4,0.2c5.3,0.1,8.9,0.1,11,0.1c1.6,0,2.4-0.8,2.4-2.4v-78c0-1.6,0.8-2.4,2.4-2.4c1.1,0,3.1,0.1,5.9,0.4
	c2.8,0.2,5.8,0.5,8.9,0.8c3.1,0.3,5.9,0.7,8.6,1.1s4.6,0.7,5.7,1.1c0.3,0.2,0.7,0.3,1.2,0.5s0.7,0.5,0.7,0.9c0,0.6-0.4,1.3-1.1,1.9
	s-1.2,1.1-1.5,1.4l-0.7,1.7v43.2c0,0.8,0.5,1.3,1.5,1.4c1,0.2,1.8,0.2,2.5,0.2c0.5,0,1.3,0,2.4-0.1c1.1-0.1,2.2-0.2,3.3-0.4
	c1.1-0.2,2.1-0.3,3.1-0.5c0.9-0.2,1.7-0.3,2.1-0.5c0.9-0.5,2.2-1.6,3.8-3.3c1.6-1.7,3-3.7,4.4-5.8c1.3-2.1,2.4-4.2,3.1-6.1
	c0.7-2,0.8-3.5,0.4-4.6l-1.2-0.9c-2.7-0.5-5.3-0.6-7.9-0.4c-2.6,0.2-5.2,0-7.9-0.8c-0.3-0.2-0.7-0.3-1.2-0.5
	c-0.5-0.2-0.7-0.4-0.7-0.7c0-0.8,0.5-1.3,1.5-1.7c1-0.3,1.8-0.6,2.2-0.9c2.5-1.1,4.7-2.5,6.5-4.1c1.8-1.7,3.5-3.3,5.1-5.1
	c1.6-1.7,3.2-3.4,4.8-5.1c1.7-1.7,3.5-3,5.5-4.1l1.4,0.2c0.9,0.6,2.6,1.9,5.1,3.7c2.4,1.8,5,3.8,7.6,5.9s4.9,4.2,7,6.1
	c2,2,3.1,3.3,3.1,4.1c0,1.6-1.3,2.4-3.8,2.6c-2.5,0.2-5.4,0.2-8.5,0c-3.2-0.2-6-0.2-8.6-0.2s-3.9,0.6-3.9,1.9c0,2.5,0.9,4.9,2.7,7.2
	c1.8,2.3,3.8,4.3,6,6.1c2.2,1.8,4.2,3.4,6,4.8s2.7,2.5,2.7,3.3c0,0.8-0.3,1.2-0.8,1.3c-0.6,0.1-1.1,0.2-1.5,0.4
	c-1.7,0.3-3.5,0.8-5.4,1.5s-3.8,1.1-5.7,1.1c-2.2,0-4.4-0.3-6.7-0.9c-2.3-0.6-4.5-0.9-6.7-0.9c-3.3,0-6.8,0-10.5-0.1
	c-3.7-0.1-7.1,0.3-10.3,1.1c-1.6,0.3-2.4,1.1-2.4,2.4v20.8c0,1.3,0.7,2,2,2.2c1.3,0.2,2.9,0.3,4.6,0.2s3.4-0.2,5-0.2
	c1.6-0.1,2.6,0.2,3.1,0.8c-0.2,0.3-0.6,0.9-1.4,1.7l-1.7,0.7h-79.1V328.9z M321.2,272.9l-0.7-0.7l0.7-0.7c0.9,0,2.6,0,5.1,0
	c2.4,0,5.2,0,8.1-0.1c3-0.1,6.1-0.1,9.3-0.1c3.2,0,6.3,0,9.1,0c2.8,0,5.2,0,7.2,0.1c2,0.1,3.2,0.2,3.7,0.4l-2.6,1.2h-39.9V272.9z
	 M329.2,330.5l0.2,0.2l-0.2,0.5l-0.2-0.5L329.2,330.5z M363.7,297.7c-0.5,0.5-1.8,0.8-4,0.9c-2.2,0.2-4.6,0.3-7.3,0.4
	c-2.7,0.1-5.3,0.2-7.8,0.2c-2.5,0.1-4.2,0.1-5.2,0.1c-1.3,0.2-2.4,0.3-3.5,0.4c-1.1,0.1-2.3,0.1-3.5,0.1c-1.1,0-1.8-0.5-2.1-1.7
	c-0.3-1.1,0.3-1.7,1.9-1.7H361c0.5,0,1,0.1,1.5,0.4C363,297.1,363.4,297.4,363.7,297.7z M406.2,347.1c0.8,0,1.9-0.7,3.4-2
	s3-2.8,4.6-4.4c1.6-1.6,3.1-3,4.6-4.4c1.5-1.3,2.6-2,3.4-2c0.9,0,2.8,0.7,5.7,2.2c2.8,1.5,5.7,3.2,8.7,5.2s5.7,4,8,6
	c2.4,2,3.5,3.6,3.5,4.7c0,0.8-0.4,1.4-1.2,1.9c-0.8,0.5-1.6,0.9-2.5,1.4s-1.7,0.9-2.5,1.4s-1.2,1-1.2,1.7v81c0,3.3-1.3,6.3-3.8,9
	s-5.5,5-9.1,7c-3.5,2-7.3,3.5-11.2,4.6c-3.9,1.1-7.2,1.7-9.9,1.7c-0.5,0-0.8-0.2-0.9-0.7c-0.2-0.5-0.3-0.9-0.5-1.2
	c-0.8-3-1.3-5.6-1.5-7.9s-0.6-4.5-1.2-6.6s-1.3-4.2-2.4-6.3c-1-2-2.6-4.4-4.8-7.1c-0.3-0.5-0.6-0.9-0.9-1.2s-0.5-0.8-0.5-1.4
	c0-1.1,0.6-1.7,1.9-1.7s2.8,0.1,4.5,0.2c1.7,0.2,3.5,0.1,5.3-0.1s3.3-1.1,4.4-2.5c0.5-0.6,0.9-2.8,1.2-6.5c0.3-3.7,0.5-7.8,0.6-12.2
	c0.1-4.4,0.1-8.6,0.1-12.6s0-6.7,0-8.1c0-1.6,0-4,0.1-7.2s0.2-6.6,0.2-10.2c0.1-3.5,0.1-6.8,0-9.8s-0.3-5-0.6-5.9
	c-0.3-0.9-0.7-1.7-1.2-2.2s-1.3-0.8-2.6-0.8H364c-0.3,0-0.7,0.1-1.2,0.2c-0.5,0.2-0.8,0.4-0.9,0.7c-0.3,0.8-0.5,2-0.6,3.8
	c-0.1,1.7-0.1,3.6-0.1,5.5c0,2,0,3.9,0.1,5.9s0.1,3.4,0.1,4.4c0,1.7,0,4.8,0,9.3s0,9.6-0.1,15.3c-0.1,5.7-0.2,11.8-0.2,18.1
	c-0.1,6.3-0.2,12.2-0.4,17.6c-0.2,5.4-0.4,10-0.6,13.8s-0.5,6-0.8,6.6c-0.9,1.7-2.4,3.2-4.5,4.4c-2,1.2-4.3,2.1-6.8,2.8
	c-2.5,0.7-5,1.2-7.6,1.5c-2.5,0.3-4.6,0.5-6.4,0.5c-0.6,0-1.2-0.1-1.8-0.4c-0.6-0.2-0.8-0.7-0.8-1.5V336.4c0-1.4,0.8-2.1,2.4-2.1
	c2.4,0,4.8,0.7,7.2,2c2.4,1.3,4.9,2.8,7.4,4.4s5.1,3,7.8,4.4c2.7,1.3,5.4,2,8.3,2L406.2,347.1L406.2,347.1z M406.2,374.5l0.5,0.7
	c-0.3,0.2-1.5,0.3-3.7,0.4c-2.1,0.1-4.7,0.1-7.7,0.1s-6.2,0-9.7,0s-6.7,0-9.7-0.1c-3-0.1-6.5-0.2-10.4-0.4c0.3-0.5,0.7-0.8,1.3-1.1
	c0.5-0.2,1.1-0.4,1.5-0.4h36.1L406.2,374.5z M404.6,403.7h-36.1c-0.5,0-1-0.1-1.5-0.4c-0.6-0.2-1-0.6-1.3-1.1
	c0.3-0.2,1.5-0.3,3.7-0.4c2.1-0.1,4.7-0.1,7.7-0.1s6.2,0,9.7,0s6.7,0,9.7,0.1c3,0.1,6.5,0.2,10.4,0.4l-0.5,0.7L404.6,403.7z
	 M436,305.7c0.5,0,2,1,4.5,3s5.2,4.1,7.9,6.5c2.8,2.4,5.2,4.6,7.4,6.7c2.2,2.1,3.3,3.3,3.3,3.7c0,0.8-0.4,1.4-1.3,1.9
	s-1.7,0.7-2.5,0.7c-5.2,0-10.5,0.1-16.1,0.2c-5.5,0.2-10.8-0.4-15.8-1.7c-1.3-0.3-1.9-0.9-1.9-1.7c0-0.9,0.6-2.5,1.8-4.6
	c1.2-2.1,2.6-4.3,4.1-6.5c1.6-2.2,3.2-4.1,4.8-5.8C433.9,306.6,435.2,305.7,436,305.7z"/>
<path d="M551.3,395.2c0.6-0.3,1-0.4,1.3-0.4s1.5,0.9,3.5,2.6c2,1.8,4.2,3.8,6.6,6c2.3,2.3,4.5,4.6,6.4,6.9c1.9,2.3,2.9,4,2.9,5.1
	c0,0.6-0.2,1-0.7,1.2c-0.4,0.2-0.9,0.3-1.3,0.3h-33.2c-1.5,0-2.2,0.7-2.2,2.2v42.4c0,1.5-1,2.6-3.1,3.4s-4.4,1.4-7.1,1.8
	c-2.7,0.4-5.3,0.6-7.9,0.7c-2.6,0.1-4.4,0.1-5.4,0.1c-0.9,0-1.4-0.2-1.6-0.5c-0.2-0.4-0.4-0.9-0.5-1.6c-0.7-3.4-1.1-7-1-11
	s0-7.7-0.1-11.2c-0.3-7.8-0.4-15.5-0.4-23.2s0-15.4,0-23.2c0-0.7,0-1.9,0.1-3.6s0.1-3.4,0.1-5.2s-0.1-3.4-0.2-4.9s-0.4-2.5-0.7-3
	c-0.4-0.1-2.2-0.3-5.2-0.3c-3-0.1-6.3-0.1-9.9-0.1s-7,0-10.3,0s-5.5,0-6.5,0c-0.7,0-1.1-0.4-1.1-1.1c0-1.2,1.2-1.7,3.5-1.5
	c2.3,0.1,4.9,0.4,7.6,0.7s5.2,0.3,7.6,0.1c2.3-0.2,3.5-1.4,3.5-3.4c0-2.9-0.4-5.8-1.2-8.7c-0.8-2.9-1.6-5.6-2.5-8.3
	s-1.7-5.5-2.5-8.3c-0.8-2.9-1.2-5.7-1.2-8.7c0-1.9,1-2.6,3.1-2.2c1.2,0.3,2.2,0.7,3.3,1.2c1,0.5,2,1,3.1,1.4c2.2,1,4.3,2.2,6.3,3.5
	s3.8,2.8,5.4,4.5s2.9,3.6,3.8,5.7c0.9,2.1,1.4,4.5,1.4,7.1c0,2.3-0.5,4.5-1.6,6.6c-1.1,2.1-1.6,4.3-1.6,6.6c0.6,1.2,1.4,1.8,2.4,1.8
	c0.6,0,1.5,0,2.9,0.1c1.3,0.1,2.7,0.1,4.1,0.1c1.4,0,2.7,0,3.8-0.1c1.2-0.1,1.9-0.3,2.2-0.5c0.3-0.3,0.8-2.4,1.5-6.3
	c0.7-3.9,1.5-8.2,2.3-13c0.8-4.8,1.5-9.3,2.1-13.5c0.6-4.2,0.9-6.9,0.9-7.9c0-1.9-0.9-2.9-2.6-2.9c-7,0-14.1,0.3-21.2,0.9
	c-7.1,0.6-14.2,0.9-21.2,0.9c-1.8,0-4.1-0.2-7-0.5c-2.9-0.4-5.2-0.8-6.8-1.4c-0.1-0.1-0.4-0.3-0.8-0.3c-0.4-0.1-0.5-0.3-0.5-0.5
	c0-0.7,0.4-1.1,1.1-1.1h30.5c1.5,0,2.2-0.7,2.2-2.2v-62.7c0-1.5,0.7-2.2,2.2-2.2c4.4,0,8.9,0.1,13.5,0.3c4.6,0.2,9,0.9,13.3,2.1
	c0.3,0.1,0.7,0.3,1.1,0.4c0.4,0.1,0.7,0.4,0.7,0.9c0,0.9-0.5,1.6-1.4,2.2c-1,0.6-1.4,1.4-1.4,2.4v20.7l0.7,1.3l1.5,0.7
	c1.6-0.4,3.1-1.5,4.6-3.3c1.5-1.8,2.8-3.6,4-5.6s2.2-3.7,3.2-5.3c1-1.5,1.7-2.3,2.3-2.3c0.4,0,1.6,0.8,3.5,2.5
	c1.9,1.7,4,3.6,6.3,5.6c2.3,2.1,4.4,4.1,6.5,6c2,2,3.4,3.3,4,3.8l0.4,1.1c0,0.7-0.4,1.1-1.1,1.1h-33.8c-1.5,0-2.2,0.7-2.2,2.2v26.4
	c0,0.6,0.4,1,1.1,1.2c0.7,0.2,1.3,0.3,1.8,0.3c1.5,0,2.9-0.8,4.3-2.3c1.4-1.5,2.7-3.3,4-5.3c1.2-2,2.4-4,3.4-6s1.9-3.7,2.6-4.8
	l1.3-0.7c0.4-0.1,1.7,0.7,3.8,2.6c2.1,1.9,4.4,4.1,6.8,6.7c2.4,2.6,4.6,5.1,6.6,7.7s3,4.4,3,5.6s-1.2,1.8-3.6,1.8s-5.1-0.1-8.1-0.3
	s-5.7-0.3-8.1-0.1c-2.4,0.1-3.6,1-3.6,2.4c0,1.8,0.6,3,1.8,3.7c1.2,0.7,2.5,1.2,4,1.5c1.5,0.3,2.8,0.6,4,0.9
	c1.2,0.3,1.8,0.9,1.8,1.8c0,0.6-0.2,1.1-0.7,1.5c-1,1-2.1,1.9-3.3,2.6s-2.3,1.5-3.5,2.4c-4,3.4-7.6,7.1-10.9,11.3
	c-3.3,4.2-6.8,8.2-10.4,12l-0.4,1.3c0.1,0.9,0.6,1.4,1.3,1.5s1.5,0.2,2.2,0.2c2.6,0,4.8-0.5,6.5-1.6c1.7-1.1,3.2-2.5,4.5-4.2
	s2.5-3.5,3.5-5.5s2.1-3.8,3.3-5.6l1.3-0.7l1.1,0.4l16.5,16.5l0.7,1.5c0,1.5-0.5,2.2-1.5,2.2h-34.5c-1.5,0-2.2,0.7-2.2,2.2v27.7
	c0,0.6,0.4,1.2,1.1,2c0.7,0.7,1.4,1.1,2,1.1s1.5-0.8,2.7-2.3s2.5-3.3,3.8-5.4c1.3-2,2.6-4,3.8-5.8C550,397.3,550.8,396,551.3,395.2z
	 M477.4,414.8h25l0.7,0.7l-0.7,0.7h-25l-0.7-0.7L477.4,414.8z M503.6,297.2c-0.3,0.1-1.5,0.3-3.7,0.5c-2.2,0.2-4.6,0.4-7.3,0.5
	c-2.6,0.1-5.1,0.3-7.5,0.4c-2.3,0.1-3.9,0.2-4.6,0.2c-1.8,0-2.3-0.8-1.5-2.4c0-0.1,0.4-0.3,1.1-0.3c0.7-0.1,1.2-0.1,1.3-0.1
	c3.4-0.3,6.7-0.4,9.9-0.2c3.2,0.1,6.5,0.2,9.9,0.2L503.6,297.2z M637.2,409.5c0.1-0.3,0.3-0.5,0.3-0.8c0.1-0.2,0.2-0.5,0.3-0.8
	c0.6-1.5,0.8-3.1,0.8-4.8c-0.1-1.8,0-3.4,0.3-5.1c0.6-3.7,1.2-7.3,1.9-11c0.7-3.7,1.4-7.3,2.1-11c0.4-2.2,0.9-4.4,1.3-6.5
	c0.4-2.1,0.7-4.3,0.7-6.5c0-1.5-0.8-2.5-2.3-3.2s-3.3-1.1-5.4-1.2c-2.1-0.1-4.1-0.2-6.2-0.1c-2.1,0.1-3.5,0.1-4.4,0.1
	c-0.7,0-2.3,0-4.7,0s-4.9,0.1-7.4,0.2c-2.5,0.1-4.7,0.4-6.7,0.9c-2,0.4-3,1.2-3,2.2V457c0,2-1,3.8-2.9,5.2c-1.9,1.4-4.1,2.5-6.6,3.3
	s-5.1,1.4-7.8,1.8s-4.8,0.5-6.3,0.5s-2.2-0.7-2.2-2.2V325.4c0-9.5-0.3-19-0.9-28.3c-0.6-9.4-0.9-18.8-0.9-28.3
	c0-1.2,0.7-1.8,2.2-1.8c1.2,0,3,0.6,5.4,1.9c2.4,1.2,4.9,2.6,7.6,4c2.6,1.4,5.2,2.7,7.7,4c2.5,1.2,4.4,1.9,5.7,1.9h31.9
	c1.8,0,3.2-0.7,4.3-2.1s2.1-2.9,3.1-4.6c1-1.7,1.9-3.2,2.9-4.6c1-1.4,2.2-2.1,3.6-2.1c0.4,0,1.9,0.9,4.3,2.6c2.4,1.8,5,3.8,7.8,6
	c2.8,2.3,5.3,4.4,7.7,6.5c2.3,2.1,3.7,3.3,4,3.7c-1,0.9-2.1,1.8-3.1,2.6c-1,0.9-2.1,1.8-3.1,2.9l-0.7,1.5c0,2.5,0.1,5.2,0.2,8.2
	c0.1,3,0.2,6.1,0.2,9.2c0,3.2-0.1,6.2-0.3,9.1s-0.8,5.5-1.6,7.7c-0.6,1.6-1.5,3.1-2.7,4.4s-2.4,2.6-3.5,4c-1.1,1.3-1.9,2.7-2.5,4.3
	c-0.6,1.5-0.5,3.3,0.2,5.2c0.1,0.7,1.2,1.8,3.2,3.3s4.1,3.1,6.4,4.8c2.3,1.8,4.5,3.6,6.6,5.4s3.6,3.3,4.3,4.5l-0.7,1.3
	c-0.9,0.6-1.8,1.1-2.7,1.6c-1,0.5-1.7,1.2-2.3,2.1c0,0.1,0,0.3-0.1,0.3c-0.1,0.1-0.1,0.2-0.1,0.3c-1.9,5.7-3.6,11.5-5.2,17.2
	c-1.5,5.8-3.4,11.5-5.6,17c-1.3,3.4-3,6.8-4.9,10.4c-2,3.6-3.5,7-4.5,10.2c0,0.1,0,0.3-0.1,0.5s-0.1,0.4-0.1,0.5
	c0,2.1,1.4,4,4.2,5.9s5.9,3.7,9.2,5.4c3.4,1.7,6.4,3.2,9.2,4.4s4.2,2.3,4.2,3.2c0,0.7-0.7,1.8-2,3.2s-2.9,2.9-4.6,4.4
	c-1.8,1.5-3.5,3-5.2,4.3s-2.8,2.3-3.4,2.9c-1.6,1.5-3,3-4.3,4.7c-1.2,1.7-2.5,3.3-3.8,4.9c-0.6,0.9-1.3,1.3-2.2,1.3
	c-1.3,0-2.6-1.2-4-3.5c-1.3-2.3-2.7-4.9-4.1-7.6c-1.4-2.7-2.9-5.2-4.4-7.6c-1.5-2.3-3.2-3.5-4.9-3.5c-0.7,0-1.8,0.5-3.1,1.5
	s-2.7,2.2-4.3,3.5c-1.5,1.3-3,2.6-4.3,4c-1.3,1.3-2.3,2.3-2.9,2.9c-4.1,3.7-8.9,6.5-14.3,8.6l-0.7-0.4c0.4-1.3,1.1-2.6,2.1-3.7
	c1-1.2,1.8-2.3,2.5-3.5c1.3-1.6,2.9-3.7,4.7-6.4c1.8-2.6,3.6-5.4,5.3-8.3c1.7-2.9,3.1-5.8,4.4-8.6c1.2-2.8,1.9-5.2,1.9-7.3
	c0-4.2-0.5-8.4-1.6-12.5s-2.3-8.2-3.7-12.2s-2.6-8.1-3.7-12.2c-1.1-4.1-1.6-8.3-1.6-12.5c0-0.7,0-1.5,0-2.2c0-0.7,0.2-1.5,0.7-2.2
	c0.6,0.4,1.5,2.5,2.9,6.3c1.3,3.7,2.8,7.8,4.4,12.1c1.6,4.3,3.4,8.3,5.4,11.9c2,3.6,3.9,5.6,5.8,6L637.2,409.5z M606.4,283
	c-1.5,0-2.2,0.7-2.2,2.2V354c0,1.5,0.7,2.2,2.2,2.2h34.3c1.2,0,2.5-0.5,4.1-1.6c1.5-1.1,3-2.4,4.3-4c1.3-1.5,2.5-3.1,3.4-4.8
	c1-1.7,1.4-3.1,1.4-4.3c0-0.9-0.7-1.4-2.1-1.4c-1.4-0.1-3,0-4.7,0.2c-1.8,0.2-3.5,0.5-5.3,0.9s-3,0.5-3.7,0.5
	c-1.2,0-1.9-0.8-2.2-2.4c-0.3-1.6-0.6-2.9-0.9-4c-1.6-5.9-4.5-11-8.8-15.4c-0.3-0.3-0.6-0.6-1-1s-0.5-0.8-0.5-1.4
	c0-0.9,0.7-1.4,2.1-1.4c1.4-0.1,3-0.1,4.7,0c1.8,0.1,3.5,0.1,5.2,0c1.7-0.1,2.8-0.5,3.4-1.2c0.4-0.6,0.8-2.3,1.1-5.1
	s0.5-5.9,0.7-9.3c0.1-3.4,0.3-6.7,0.3-9.8c0.1-3.1,0.1-5.2,0.1-6.4c0-0.7-0.4-1.4-1.2-2c-0.8-0.6-1.6-0.9-2.3-0.9L606.4,283z"/>
<path d="M705,391.6c0-0.7,0.2-1.2,0.6-1.5c0.4-0.3,0.9-0.4,1.4-0.4c0.5,0.1,1,0.2,1.4,0.5s0.6,0.8,0.6,1.4c0,18.2,0.2,36.2,0.6,54.1
	c0.4,17.9,0.6,36,0.6,54.1c0,1.2-0.6,1.8-1.8,1.8c-8.9,0-17.7-0.2-26.5-0.5c-8.8-0.4-17.6-0.5-26.5-0.5c-1.2,0-1.8-0.6-1.8-1.8
	c0-1.2,0.6-1.8,1.8-1.8H703c1.2,0,1.8-0.6,1.8-1.8V391.6H705z"/>
<path d="M799.9,440.2l0.4-0.4c2.1,0.1,4.2,0.4,6.5,0.9c2.3,0.6,4.4,1.4,6.3,2.5c1.9,1.1,3.5,2.6,4.8,4.4c1.3,1.8,1.9,3.9,1.9,6.3
	c0,1.2-0.3,2-0.8,2.4c-0.6,0.4-1.3,0.8-2.3,1.2c-0.7,0.3-2,0.7-3.8,1.2s-3.9,1.1-6.2,1.8s-4.7,1.3-7.3,2c-2.5,0.7-4.9,1.4-7,2
	c-2.1,0.7-3.9,1.3-5.4,1.8c-1.4,0.5-2.2,0.9-2.4,1.2c-0.1,0.1-0.1,0.3-0.2,0.4c0,0.1-0.1,0.2-0.2,0.4v17.3c0,1.5-0.6,2.6-1.8,3.3
	c-1.2,0.7-2.6,1.1-4.1,1.2c-1.5,0-2.9-0.2-4.1-0.7c-1.2-0.5-1.8-1.3-1.8-2.3v-12.7c0-0.7-0.4-1-1.1-1c-1.6,0-3.4,0.6-5.3,1.8
	c-1.9,1.2-3.6,2.6-5.2,4.4c-1.6,1.7-2.9,3.6-4,5.6s-1.6,3.8-1.6,5.3s0.5,2.8,1.4,3.8c1,1,2.1,1.7,3.5,2.2s2.9,0.8,4.4,0.9
	s2.9,0.2,4.1,0.2c2.4,0,4.8-0.2,7.2-0.5s4.7-0.7,7.1-1.1c2.4-0.4,4.7-0.8,7.1-1.1c2.4-0.3,4.8-0.5,7.2-0.5c1.1,0,2.3,0.1,3.5,0.2
	c1.3,0.1,2.4,0.4,3.4,0.8s1.9,1.1,2.6,1.9c0.7,0.8,1.1,2,1.1,3.5c0,2.2-1,3.9-3,5s-4.4,2-7.2,2.5c-2.8,0.6-5.6,0.9-8.4,0.9
	c-2.8,0.1-4.9,0.1-6.4,0.1c-2.5,0-5,0-7.5,0.1c-2.5,0-5,0-7.5-0.2c-1.2-0.1-2.3-0.3-3.4-0.6c-1.1-0.3-2.2-0.7-3.2-1.1
	c-3.3-1.3-6.1-3.1-8.4-5.6c-2.3-2.5-3.4-5.6-3.4-9.4c0-2.4,0.6-4.6,1.7-6.7c1.1-2.1,2.6-4.1,4.3-5.9s3.5-3.5,5.5-5.1
	c2-1.5,3.8-3,5.5-4.3s3.1-2.5,4.3-3.5c1.1-1,1.7-2,1.7-2.8c0-1.1,0-2.3-0.1-3.5s-0.3-2.3-0.7-3.4c-0.4-1-1-1.9-1.8-2.6
	s-2-1.1-3.4-1.1c-2.4,0-4.5,0.6-6.3,1.9s-3.5,2.9-5,4.8s-2.9,4-4.3,6.3c-1.3,2.3-2.7,4.3-4,6.3c-1.3,1.9-2.7,3.5-4.2,4.8
	s-3.1,1.9-4.9,1.9c-1.3,0-2.2-0.3-2.9-0.9s-1.2-1.4-1.5-2.4s-0.5-2-0.6-3.1s-0.1-2.1-0.1-3c0-0.4,0.5-1.3,1.5-2.5s2.3-2.7,3.9-4.4
	c1.6-1.7,3.3-3.5,5.1-5.5s3.6-3.9,5.1-5.8c1.6-1.9,2.9-3.6,3.9-5.2c1-1.6,1.5-2.9,1.5-3.8c0-0.7-0.3-1.1-1-1.1H742
	c-1.3,0-2.5-0.4-3.7-1.3c-1.2-0.8-2.2-1.9-3.1-3.1c-0.9-1.2-1.6-2.5-2.1-3.9s-0.8-2.7-0.8-3.8c0-0.3,0.1-0.6,0.2-0.8
	c0.1-0.3,0.3-0.4,0.7-0.4c0.1,0,0.5,0.1,1.1,0.3c0.6,0.2,1.2,0.5,1.8,0.8c0.7,0.3,1.3,0.6,1.9,0.9c0.6,0.3,1.1,0.5,1.3,0.6
	c1.5,0.5,3,0.8,4.5,1c1.5,0.1,3,0.2,4.6,0.2c1.7,0,3.3-0.1,4.9-0.3c1.5-0.2,2.9-0.6,4.1-1.3c1.2-0.7,2.1-1.6,2.8-2.8
	s1.1-2.9,1.1-4.9c0-1.4-0.3-2.5-1-3.4c-0.7-0.8-1.4-1.6-2.2-2.2c-0.8-0.6-1.5-1.1-2.1-1.5c-0.6-0.4-0.9-0.8-0.9-1.3
	c0-0.4,0.5-0.9,1.5-1.3c1-0.4,2.3-0.7,3.9-0.9c1.5-0.2,3.2-0.3,5-0.3s3.5,0.3,5,0.7c1.5,0.4,2.8,1,3.9,1.9c1,0.8,1.5,1.9,1.5,3.3
	c0,0.2-0.2,0.8-0.6,1.6c-0.4,0.8-0.8,1.8-1.3,2.7c-0.4,1-0.9,1.8-1.3,2.7c-0.4,0.8-0.6,1.3-0.6,1.3c0.1,0.5,0.3,0.8,0.6,0.8
	s0.6,0,1,0c1.2,0,2.3-0.2,3.4-0.7c1.1-0.5,2.1-1,3.2-1.5c1-0.6,2.1-1.1,3.2-1.5c1.1-0.5,2.2-0.7,3.5-0.7c1.5,0,2.8,0.4,4.1,1.2
	c1.3,0.8,1.9,2,1.9,3.7c0,2-0.9,3.5-2.6,4.6c-1.7,1.1-3.9,2-6.5,2.8c-2.6,0.7-5.4,1.5-8.4,2.2s-5.8,1.6-8.4,2.8
	c-2.6,1.1-4.7,2.7-6.5,4.6c-1.7,2-2.6,4.6-2.6,7.8c0,0.7,0.4,1,1.1,1c0.7,0,1.6-0.2,2.5-0.5s1.9-0.7,2.8-1.2c1-0.4,1.9-0.8,2.9-1.2
	c1-0.3,2-0.5,3-0.5c1.7,0,3.3,0.5,4.7,1.5s2.7,2.2,3.9,3.4c1.1,1.2,2.1,2.3,2.9,3.3c0.8,1,1.4,1.5,1.9,1.5s1.4-0.3,2.6-0.8
	c1.2-0.5,2.6-1.2,4-2c1.5-0.8,3-1.8,4.6-2.8s3.1-2,4.4-3c1.3-1,2.4-1.9,3.3-2.8c0.8-0.8,1.3-1.5,1.3-1.9c0-1.3-0.5-2.3-1.4-3.2
	s-1.8-1.7-2.7-2.3L799.9,440.2z"/>
</svg>
