<svg xmlns="http://w3.org/2000/svg" viewBox="0 0 797.98 282"><path d="M30.23,16.37a101.75,101.75,0,0,0-.7-15H52.47c-.56,3.64-.7,7-.7,14.69v6.57H78.62V16.51c0-7.56-.14-10.63-.7-14.69h22.94a101.75,101.75,0,0,0-.7,15v5.87H108a131.89,131.89,0,0,0,16.65-.84v22A135,135,0,0,0,108,42.94h-7.83V67.7h10.35A169.44,169.44,0,0,0,130,66.86v22a178.2,178.2,0,0,0-19.3-.83H91.77c10.77,11.18,20,16.64,39.58,23.91a102.12,102.12,0,0,0-14.13,19.16c-20.14-9.23-30.63-16.78-45.17-33L90,88H39.18l18.74,9.93C44.36,114,33.59,122.24,14.84,130.77A96.51,96.51,0,0,0,.3,112.45c12-4.47,20-8.67,27.41-14.4A49.36,49.36,0,0,0,37.92,88H20.16a182.18,182.18,0,0,0-19.58.83v-22a177.4,177.4,0,0,0,19.58.84H30.23V42.94H22.68a134.11,134.11,0,0,0-16.51.84v-22a137.33,137.33,0,0,0,16.51.84h7.55ZM78.62,67.7V42.94H51.77V67.7Z" transform="translate(-0.3 0)" style="fill:#fff"/><path d="M202.4,97.77a14.25,14.25,0,0,0,5.59,5.87,133.51,133.51,0,0,0,.7-15V45.18a144.84,144.84,0,0,0-.7-16.65,160.75,160.75,0,0,0,16.09.56H228a84,84,0,0,0-8.11-4.75L227.71,20h-6.43a106.84,106.84,0,0,0-14.83.7V1a156.64,156.64,0,0,0,18.61.84h41.68c10.07,0,15-.28,17.62-.84l10.35,11.19c-1.82,1.26-1.82,1.26-6.58,5.45A143.61,143.61,0,0,1,274,29.09h6.43a110.06,110.06,0,0,0,13.29-.56,127.29,127.29,0,0,0-.56,15v46c0,7.28-1.26,10.07-5,12.17-2.65,1.4-7.69,2.1-15.66,2.1h-4.76a60.13,60.13,0,0,0-3.35-14.41,52.11,52.11,0,0,0,6,.42c2.24,0,2.52-.28,2.52-2.93v-2.8H260.16v4.06a110.29,110.29,0,0,0,.7,15.66H239.74a108.35,108.35,0,0,0,.84-15.66V84.06H229v4.61c0,8,.14,12.73.84,15.53h-20.7c3.92,2,6.3,2.52,13,3.08,3.64.28,24.34.84,30.35.84A424,424,0,0,0,301,104.9a108.14,108.14,0,0,0-5,22.8c-15.25.56-26,.7-49.79.7-14.27,0-27-.7-34-2-8.11-1.54-13.71-4.48-19.86-10.91-5.88,5.59-9.09,8.11-17.21,13.56l-10.06-21.67a74.61,74.61,0,0,0,17.06-10.35v-26h-5.88a48.26,48.26,0,0,0-8.39.7V50.35a69.27,69.27,0,0,0,11.33.7h13a63.3,63.3,0,0,0,10.77-.7,144.16,144.16,0,0,0-.56,15.95ZM181.56,0c11.61,9.51,18.74,16.51,26.15,25.74L191.49,42.1a146.39,146.39,0,0,0-25.74-26.85ZM229,44.9v5.73h11.61V44.9Zm0,25h11.61V64.06H229ZM241.14,20c4.06,2.94,5.74,4.34,9.93,7.69A78.32,78.32,0,0,0,260.72,20Zm19,30.63h12.73V44.9H260.16Zm12.73,13.43H260.16v5.87h12.73Z" transform="translate(-0.3 0)" style="fill:#fff"/><path d="M416,65.32c-1.12,16.36-3.78,25.59-10.07,36.08C398.2,114,387.71,122,368.41,129.79c-5-10.07-8-14.12-16.36-22.09,25.59-7.56,36.64-20,37.76-42.38H361.14c-11.61,0-15.52.14-21.12.7V42.52c6,1,9.93,1.12,21.54,1.12h77.9c12.45,0,16-.14,22.24-1V66c-8.11-.7-9.37-.7-21.82-.7ZM354.29,6.58c6.29,1,9.51,1.11,21.68,1.11h48.95c13,0,16.22-.14,22.38-1.11V30.21c-5.46-.56-7.7-.7-22-.7H375.55c-12.17,0-15.95.14-21.26.7Z" transform="translate(-0.3 0)" style="fill:#fff"/><path d="M612.89,126.86a224.31,224.31,0,0,0-40.14-39.72C559.6,102.66,543,115,521.28,125.46c-4.89-9.79-7.83-14-15.66-22.1,18.18-7,32.58-16.08,45.31-28.25,13-12.45,21.54-24.9,28.11-41.12l-36.36.56c-12,.28-16.5.56-22.24,1.4l-.7-24.9a103.58,103.58,0,0,0,14.69,1c1.12,0,3.77,0,7.83-.14l47.83-.7c6.58-.14,7.42-.14,11.19-1.54l12.31,12.59c-2.1,2.1-2.94,3.5-5,8.25C601.14,48,595.83,57.77,588,68.26c16.92,12.16,22.65,17.06,44.47,37.9Z" transform="translate(-0.3 0)" style="fill:#fff"/><path d="M700.3,126.3a199.52,199.52,0,0,0,.84-21.4V23.5c0-11.33-.14-12.73-1-20.28h27c-.56,4-.7,11-.7,20.42V42.8A296.6,296.6,0,0,1,790.1,71.89L776.81,95.67a259.75,259.75,0,0,0-44.06-24.34c-4.89-2-4.89-2-6.29-2.8V104.9a205,205,0,0,0,.84,21.4Z" transform="translate(-0.3 0)" style="fill:#fff"/><path d="M3.72,167.59c0-6.57-.14-10.91-.56-15.52a181.66,181.66,0,0,0,18.32.56H109c8.95,0,14.12-.14,17.62-.56a152.52,152.52,0,0,0-.7,17.62v91.05c0,8-2.38,12.73-7.55,15.53-3.5,1.81-9.09,2.65-19.44,2.65-6,0-8.11,0-14.41-.28-1.26-8.25-2.38-12.17-6-20.42,7,.56,15.38,1,19.3,1,5.31,0,6.71-.56,6.71-3.07V172.35H25.12v89.79c0,9.23.14,13.43.7,17.62H2.74a143.21,143.21,0,0,0,1-18.32Zm25.46,10.35a96,96,0,0,0,13.28.56H87.22a101.34,101.34,0,0,0,13.43-.56v20c-3.78-.28-7-.42-13.43-.42H42.32c-6.29,0-9.51.14-13.14.42ZM95.33,246.2c0,3.63,0,6.15.28,9.37-4.47-.14-6.85-.28-9.79-.28H54.91v9.65H33.79a80.42,80.42,0,0,0,.7-12.17V213.05a63.87,63.87,0,0,0-.56-9.65c4.9.28,6.3.28,10.07.28H85a102.77,102.77,0,0,0,10.91-.28,72.49,72.49,0,0,0-.56,10.07Zm-40.56-9.66H75.19V222.42H54.77Z" transform="translate(-0.3 0)" style="fill:#d01500"/><path d="M234.35,154.17a120.74,120.74,0,0,0,15.53-.7c-.42,6-.7,11.18-.7,15.8V260A185.18,185.18,0,0,0,250,279.2h-23.5v-7H168.34v7H145.26c.56-5.73.84-12.17.84-19.16V169.41c0-5.18-.28-10.21-.7-15.94,4.62.42,9.65.7,16.08.7ZM226.52,202V174.86H168.34V202Zm-58.18,20v29.23h58.18V222Z" transform="translate(-0.3 0)" style="fill:#d01500"/><path d="M362.33,191.79a110.91,110.91,0,0,0,14,25.17c6.44,8.95,12.73,15.25,22.66,23.22-5.17,6.71-7.55,10.63-12.59,21a134.34,134.34,0,0,1-13.7-15.52v9.79a86.46,86.46,0,0,0-9.09-.42h-8.4v9.09a151.41,151.41,0,0,0,.84,16.22h-22a162.12,162.12,0,0,0,.84-16.36V255H326.8c-2.94,0-6.15.14-8.81.42v-9.51c-3.78,5.31-6.57,8.39-12.31,14.12a80.48,80.48,0,0,0-7.83-14.26v18.46c0,7.69.14,11.61.84,16.08h-22.8a102.83,102.83,0,0,0,.84-16.08V231.93c0-8,0-9.09.28-14.41a75.35,75.35,0,0,1-7.55,9.51,165,165,0,0,0-6.72-26,103.65,103.65,0,0,0,21.12-35A92.66,92.66,0,0,0,289,147.59l21.4,5.46c-.84,2.65-.84,2.65-6.58,18.46,3.92.42,9.93.56,15,.56h15.8V161.72a123.08,123.08,0,0,0-.7-12.87h22.24c-.42,4.48-.7,8.39-.7,13v10.21h22.1a170.81,170.81,0,0,0,17.9-.84v21.26c-6.43-.42-12.16-.7-17.2-.7Zm-44.06,0c-4.06,0-9.79.28-15.8.7V175.14c-1.82,4.34-2.38,5.74-4.62,10.63v50.77c13-11.32,24.2-27.69,30.63-44.75Zm16.64,39.44c0-7.55.14-13.15.28-16.5a128,128,0,0,1-10.49,21.11h10.21Zm31,4.61a157.55,157.55,0,0,1-11-21.11c.14,6.43.28,11.32.28,15.66v5.45H366Z" transform="translate(-0.3 0)" style="fill:#fff"/><path d="M412.67,235.29c-1,18.6-2.23,29.09-5,40.7l-11.33-5.74c3.22-10.63,4.9-22.1,5.46-37.9Zm88.26-34.55h13.29a100.22,100.22,0,0,0,11.46-.42c-.27,3.22-.42,6.71-.42,10.35v21a89.11,89.11,0,0,0,.29,10.35c-4.2-.28-7.14-.42-11.19-.42H504c5.73,8.95,15.1,15.24,28.11,18.74a81.91,81.91,0,0,0-9.23,21.12,64.55,64.55,0,0,1-30.49-25.31C486,267.45,477,275.43,463.31,282a61.48,61.48,0,0,0-9.51-15.24c-1.26,5.45-2.38,7.55-4.76,9.51-3.22,2.51-8,3.63-15.81,3.63-.84,0-2.09-.14-4.19-.28-.14-8.11-1-12.45-3.22-18.88a48.34,48.34,0,0,0,8.11.84c3.64,0,5.46-1,6-3.36.56-1.67.84-3.77,1.26-8.81l-5.46,3.08a97,97,0,0,0-3.36-19.3l5.18-1.54a100.24,100.24,0,0,1,3.92,15.8c.28-4.89.28-7.83.42-18H413.23c-4.61,0-8.11.14-11.46.42a70.13,70.13,0,0,0,.69-11.47V167.45a114.82,114.82,0,0,0-.69-15.52,116.92,116.92,0,0,0,15.38.7H443.3a92.55,92.55,0,0,0,14.13-.7v18.18a63.26,63.26,0,0,0-9.93-.56h-2.1v5.87h1.54a68.75,68.75,0,0,0,7.69-.42v.28c10.91-6.43,20.7-16.08,26-25.59h20.28A43,43,0,0,0,511,161.3c6.43,5.59,12,8.95,21.54,13a75,75,0,0,0-8,20.55c-4.2-2-5.46-2.65-8.12-4.05v5c-3.77-.28-5.59-.42-8.67-.42h-6.85Zm-79.3,33a262.63,262.63,0,0,1,1.53,28.81v7.27l-9,1.4c.56-8.39.7-12.31.7-19.86,0-6.57-.14-9.51-.7-16.5Zm7-64.2h-7v5.87h7Zm0,19h-7v6h7Zm-7,19v6.16h7v-6.16Zm8.67,25.18c1.82,9.37,2.09,10.91,3.49,25.45L426.1,260c-.42-12.59-.7-16.22-2.24-25.73Zm44.89-37.35a71.57,71.57,0,0,0-7.83.42v-4.61c-2.1,1.4-3.64,2.52-7.13,4.61a60.59,60.59,0,0,0-5.6-12.3V189a70.63,70.63,0,0,0-7.69-.42H445.4v6h1.4a57.33,57.33,0,0,0,7.69-.42V208c-3.07-.28-5.31-.42-7.69-.42h-1.4v6.16h2.24a61.86,61.86,0,0,0,10.07-.56c-.42,2.79-.42,6.71-.56,13.42a223.43,223.43,0,0,1-2.52,35.67c12.31-5.6,19.31-11.75,23.5-20.7h-7.41a94.37,94.37,0,0,0-11.33.56,80.54,80.54,0,0,0,.56-10.49v-21c0-5.31,0-6.71-.28-10.21,3.22.28,5,.28,11.19.28h11.75v-5.32Zm.56,21.26v8.95h6c.28-3.21.28-4,.56-8.95Zm24.48-38A59.09,59.09,0,0,1,490.72,168a79.71,79.71,0,0,1-8.81,10.63Zm.42,38c-.14,4.48-.14,5.46-.42,8.95h7.69v-8.95Z" transform="translate(-0.3 0)" style="fill:#fff"/><path d="M543.17,174.86a80.44,80.44,0,0,0-6.44-19.58c8.11.28,12,.28,16.51.28,40,0,70.77-2.93,87-8.11l13.15,19c-6,1.26-15.11,2.94-20.42,3.64l11.47,3.36c-4.62,8.81-4.76,9.09-6.58,12.16h6.44a111.84,111.84,0,0,0,14.4-.56c-.28,3.78-.42,6.86-.42,12.87v11.33a77.18,77.18,0,0,0,.84,12H639.25l3.36,4.06c-2.52,2.51-2.94,2.93-6.72,7.27-7.83,8.67-12.3,12.87-19.85,18.74,13.14,4.06,26.85,6.15,45.59,7.13a78.3,78.3,0,0,0-9.37,22c-23.92-2.66-38.74-6.71-57.06-15.94-16.09,8.11-30.22,12.58-52.73,16.64-2.8-8.81-5.32-14-10.35-20.7,16.78-1.54,29.51-4.2,42.38-8.81a172.61,172.61,0,0,1-17.91-15.81l15.81-6.43h-6.72c-5.17,0-9.79.14-14.4.56v-8.39h-18a77.83,77.83,0,0,0,.84-11.89V198.36c0-5.17-.15-8-.56-13.29a119.33,119.33,0,0,0,13.7.56h7.55a68.67,68.67,0,0,0-4.61-10.77Zm11.6,35.95c4.2.14,7,.28,10.91.28h52.73a82.18,82.18,0,0,0,11.75-.56l7.27,8.67V204.94H554.77Zm32.31-25.18c-1.39-4.47-2.51-7.55-4.05-11.46-3.36.14-4.2.14-10.63.42,2,4.47,2.93,7.13,4.33,11Zm-9.79,43.78a80.78,80.78,0,0,0,17.21,12.73,75.66,75.66,0,0,0,15.94-12.73Zm27-56.64c1.53,4.61,2.37,7.55,3.77,12.86h7a139.61,139.61,0,0,0,6.43-14.26Z" transform="translate(-0.3 0)" style="fill:#fff"/><path d="M678.41,235.29c-1,18.6-2.24,29.09-5,40.7l-11.33-5.74c3.21-10.63,4.89-22.1,5.45-37.9Zm88.26-34.55H780a100.44,100.44,0,0,0,11.47-.42c-.28,3.22-.42,6.71-.42,10.35v21a92.28,92.28,0,0,0,.28,10.35c-4.19-.28-7.13-.42-11.19-.42H769.74c5.74,8.95,15.11,15.24,28.12,18.74a81.93,81.93,0,0,0-9.24,21.12,64.64,64.64,0,0,1-30.49-25.31C751.7,267.45,742.75,275.43,729,282a61.19,61.19,0,0,0-9.51-15.24c-1.26,5.45-2.38,7.55-4.75,9.51-3.22,2.51-8,3.63-15.81,3.63-.84,0-2.1-.14-4.19-.28-.14-8.11-1-12.45-3.22-18.88a48.24,48.24,0,0,0,8.11.84c3.64,0,5.46-1,6-3.36.56-1.67.83-3.77,1.25-8.81l-5.45,3.08a97,97,0,0,0-3.36-19.3l5.18-1.54a100.21,100.21,0,0,1,3.91,15.8c.28-4.89.28-7.83.42-18H679c-4.61,0-8.11.14-11.47.42a68.92,68.92,0,0,0,.7-11.47V167.45a112.86,112.86,0,0,0-.7-15.52,117.09,117.09,0,0,0,15.39.7H709a92.55,92.55,0,0,0,14.13-.7v18.18a63.34,63.34,0,0,0-9.93-.56h-2.1v5.87h1.54a68.88,68.88,0,0,0,7.69-.42v.28c10.91-6.43,20.7-16.08,26-25.59h20.28a42.86,42.86,0,0,0,10.07,11.61c6.43,5.59,12,8.95,21.53,13a75.68,75.68,0,0,0-8,20.55c-4.19-2-5.45-2.65-8.11-4.05v5c-3.78-.28-5.59-.42-8.67-.42h-6.85Zm-79.31,33a260.27,260.27,0,0,1,1.54,28.81v7.27l-8.95,1.4c.56-8.39.7-12.31.7-19.86,0-6.57-.14-9.51-.7-16.5Zm7-64.2h-7v5.87h7Zm0,19h-7v6h7Zm-7,19v6.16h7v-6.16ZM696,232.77c1.82,9.37,2.1,10.91,3.5,25.45L691.84,260c-.42-12.59-.7-16.22-2.24-25.73Zm44.9-37.35a71.43,71.43,0,0,0-7.83.42v-4.61c-2.1,1.4-3.64,2.52-7.14,4.61a60,60,0,0,0-5.59-12.3V189a70.77,70.77,0,0,0-7.69-.42h-1.54v6h1.4a57.54,57.54,0,0,0,7.69-.42V208c-3.08-.28-5.31-.42-7.69-.42h-1.4v6.16h2.24a61.94,61.94,0,0,0,10.07-.56c-.42,2.79-.42,6.71-.56,13.42a223.43,223.43,0,0,1-2.52,35.67c12.31-5.6,19.3-11.75,23.5-20.7h-7.41a94.26,94.26,0,0,0-11.33.56,80.54,80.54,0,0,0,.56-10.49v-21c0-5.31,0-6.71-.28-10.21,3.21.28,5,.28,11.19.28h11.74v-5.32Zm.56,21.26v8.95h6c.28-3.21.28-4,.56-8.95Zm24.48-38A59.09,59.09,0,0,1,756.46,168a79,79,0,0,1-8.82,10.63Zm.42,38c-.14,4.48-.14,5.46-.42,8.95h7.69v-8.95Z" transform="translate(-0.3 0)" style="fill:#fff"/></svg>